<svg version="1.1" xmlns="http://www.w3.org/2000/svg" viewBox="0 0 40769.82749367478 4382.493291420685" width="40769.82749367478" height="4382.493291420685" class="excalidraw-svg"><!-- svg-source:excalidraw --><metadata><!-- payload-type:application/vnd.excalidraw+json --><!-- payload-version:2 --><!-- payload-start -->eyJ2ZXJzaW9uIjoiMSIsImVuY29kaW5nIjoiYnN0cmluZyIsImNvbXByZXNzZWQiOnRydWUsImVuY29kZWQiOiJ4nO2bW2/buFx1MDAxMsff8ymC7OtGS3JIXHUwMDBluW9xbnDT5rJJjtNcdTAwMWUsXHUwMDAyxVJs1Yrs40uceNHvfoZKasm6XHUwMDE0bq1cdTAwMDOcXHUwMDA3u0Brk1x1MDAxNEWRv5n5XHUwMDBmqf6zs7u7N31cdTAwMWSFe3/u7oUvXT+OgrE/3/vdlT+H40k0TKhKpL8nw9m4m7b0R6M///hj+DCJgshPvKfg7YIwXHUwMDBln8JkOqEm/6bfu7v/pH9TTVx1MDAxNLjL7tpfWq1T/nR02L71/cnNXHUwMDA3XHUwMDEzXHUwMDBim16aNlqOI46j0STMKl6odF9w7aFalr2mZVxintBKi6x8XHUwMDFlXHUwMDA10z7VcTDLsn5cdTAwMTj1+lNXaPWy0E96sbtcdTAwMWRblkym4+EgPFx1MDAxY8bDsVx1MDAxYsZvPHR/smE8+N1BbzycJcGyzXTsJ5ORP6anzto9RnF8PX1Ne6dJoyndK9yj8z5IUSivu4pu2usn4cTNLF+WXHUwMDBlR343mrqJ4Cx7XG43wlE7SFx1MDAxN+HvbExj/ylsu1VIZnG8LI6SIHxJV5St3C1cdN7v9n1cdTAwMDWz5Vx1MDAxMe8l37Kxh6HrWIDlglx1MDAxOZE9VFx1MDAwNlx1MDAxMJfFwvNhkrLEQVlthcpdXHUwMDE2TY6IpGna6aNcdTAwMWZPwmxcdTAwMDXcyI6LlOVJy9GmRn/Zmbq8bJ2Fz3eL5+e7m/aivXzKXHUwMDE14vzxeDjfW9Z8e/+WTd9sXHUwMDE0+G9cdTAwMDPiKMGg4VxmkWXUxVEyKM5tPOxcdTAwMGWyZ9jJzVnBLFx1MDAwZYKAvVx1MDAxZU4vXHUwMDE2p0lcZv7BpX9cdTAwMWTIftks6Fx1MDAxZUWboMkr21x1MDAwNMM6m1x1MDAwMC3KNrG1iFx1MDAxYYvgXHUwMDFiW4RcdTAwMDXNXHUwMDE0oqm0iFJhzlwiOKDSyH7FXCJ+yCxcdTAwMThccj/B7LJ4NIyKXHUwMDA2l33bzYBJfyy///17ZetcdTAwMWOF7qOz9iWzi/3J9HD49Fx1MDAxNE3pQS7dIIpcdTAwMDOeTP3xtEWLXHUwMDE2Jb1iXZhcdTAwMDQ1NelVXHUwMDA3zuj7oV9CgK4r1v3Aen/sZlxuLmbVfFx1MDAxMUvWy5mos16JWFx1MDAxMdEyx7o131x1MDAxNfNcdTAwMTVcdTAwMWKbL0dtlWGMZ2PJ7FfVRzQhnZ0x80tcdTAwMTGtyZjzv7HfXHUwMDFjh+7DZZNcdTAwMDacW553NdleQzo6XHUwMDFlht2Ze0LmIbNcdTAwMDK1tEJcdTAwMTiaLmVzjXr+KFWBnpFWXHUwMDBiZoFpzWRp/Vx1MDAxYnJcdTAwMWNFm1x1MDAwZuOH4XwtRdD/PJ2/3t+MjmfxbWdmXHUwMDBlW9ZcblhTKCvpWVx1MDAwNKvRaCaUNsvnf3MwoOnpXHJcblBcZkBcYpv5lO9+Rlx1MDAxOPBcZsVcdTAwMWbp+NdgISN96Xbocs9cYkBUIKRQqLNutm5oxVxywcZuXGKQK6VcZs/ymVxcYlbvhVx1MDAxNFxuJiSTTXshZcm5ZaJxI+XbeZSJPmdXo89fO75hi8F+++B4Tc45co9cdTAwMTGj3EjGQTBtXG6gXHUwMDFij2sujZs7hSY3XHUwMDBm30E3XG48XHUwMDEyWsiAkkXqo1wivEq6XHUwMDA3XHUwMDAzXHUwMDA2ZE0oKbvZRttcdTAwMWHM5ebRllwiJlx1MDAwMlpdpZZzwJU4N1pxidC0Wta06rn13ojze/7YPevyi3N1MrjszPavg7Ogty7nxnqMXHUwMDFjrFJcdTAwMTIpTVx1MDAwNomrnNM4qd5NXHUwMDFkSy3Blji31IPm1k1cdTAwMTTFXHUwMDExtFx1MDAxNZxcdTAwMGKOnrFoLNNcdTAwMDKBXFy/2YJeXHK62lx1MDAxOHQtyJdLVVx1MDAxNpCO85LUzDiXQM5MXGLdOOdI+UYznF/c+ovnezlcYlx1MDAxZl77X18+nd1eXHUwMDFkTobrbvDRXHUwMDEzak9cdTAwMThcdTAwMTfpXHUwMDA0gchRrIJOYoWEiaRm1IQzXZEhMYpcdJyUXHUwMDFmkq2ArFx1MDAxMi5gqYkk0JUkfUhcdTAwMDJo69FrQNdcdTAwMWKDLlx1MDAwMSUpSKxcdTAwMDK9Xrgg6Vx1MDAwYlx1MDAwM6bx7ElzSuSwXHUwMDE5zlx1MDAxZr8sPt9cdTAwMWQpvJv2Op2nwfFtPORiTc6FJcyJYVIlSlguoEA5c65cdTAwMTg4qWpcdNZcdTAwMWFcdGXMSe540pA3QKSskNsqzFx1MDAwMchcdTAwMTKk4IqyIGO3lNdQjlxyyHMpXHUwMDE50VUlz6Wto5xb8nBaysY3+Ujy8pzW3Uy2qFx1MDAwMX/w+zfJ/uzoQ6CC3qN/PFtcdTAwMTNz1CTAkVJI4IamyFx1MDAxNNS54Fx1MDAxYTxKQSVcdTAwMDDhrHlcdHLKU5UntTFcdTAwMDDEuZC8ypmTJidnzpRgTuPnQ+pcdTAwMTbzXHUwMDE1zM3m8pxUtlJcXJSEONWp2r1sNEJpQN24aOHImG2G8uHt2bVcdTAwMWS0jvqmNT9cdTAwMDdcdTAwMTEuzj6+ri3O3V6fR6LMSmLdMsVXMedWS0pDSXQzK1x1MDAxY8llb1x1MDAwZVKhh5b+XHUwMDExUmhlLFSAXHUwMDBlWlFcdTAwMWJGOt+SXVB/W9CrQbdcdTAwMWKDToxcdTAwMGLFdPnEMo3ddaArQ1x1MDAwZYiQbN6dW9SsXHUwMDE50Fx1MDAxN5+M/7q471x1MDAxZvWML9rhZfvDc/hx7d1cdTAwMTayf1x1MDAwZinTlsDQbVx1MDAxZlx1MDAxNsW50Vx1MDAxZY1ZWcPcrmI5XHUwMDBiXHUwMDE1ypKzJs1NOSyS8MEqzimMXHUwMDEy51x1MDAxNpSyLoDkTqu2nK9wfrD5cT1cdTAwMDOlXHUwMDE1w3LKmTqlWuGCSqCkJWqcdMrFREP7La2euE9A3/Yn7cSfLzq3/5o9qzLpXHUwMDE1Z3KCaUHyXFy4bUWjXGL2gjwnLeNxwaWmtFlcdTAwMWFKncv+XFxcdTAwMTlGwkW6XHUwMDEwXHUwMDA1yipbceZcdTAwMGVMe1x1MDAxYdFy7jZ08jn9XHUwMDE281x1MDAxNcxbm+tcdTAwMTZcbsukMVx1MDAxOatcdTAwMTIu9ZhbybQ1XCKXODVFuTb2Z7LQZXGzZ/C1kKa1RTyz7nZcbt3+f1x1MDAxY9H/+knb1alcdTAwMTRcdTAwMWaukM/xXHUwMDBl9H7UOZ6+8HVP2shfWeNZq8gngqRcXCRD7E38cWFokpU0gmJcIlPlmOhcdTAwMGXhKN4pXHUwMDBl1olrXHUwMDA2XHUwMDE1vkJcdTAwMThBcVx1MDAxM9LzPE595d5cdTAwMTjYOotcdTAwMTVncbixsyDkSYEoVVx1MDAxNVx1MDAxMnNcdTAwMWI1pa1ZwblUjDW+ZSVI6zdcdTAwMTRcdTAwMTLPj1qn9mvCOz67+IJ3fP8/Kn5aXHUwMDE3dMMspTEuWWdSWsRcIudcdTAwMWOo1p3ESElC2JQ515xTXHUwMDBiIZnhhryqVVx1MDAxNZxLrjxGMtpcdTAwMWQpU5KzlX41mFx1MDAxZm2e4khyWVx1MDAwMNUnXHUwMDEwvFx1MDAwZXNcblx1MDAxM5x4zL1X21x1MDAxMOXArW0ol/88m/mfXHUwMDA2cNXrvn78a35zaV4uWt01KVx1MDAwN8FJ+llpjHahXHUwMDFmi5hcdTAwMWJy9pSrM0lcdTAwMWHQSivKe1ZcdTAwMDQ28zizXHUwMDFhXHUwMDEwXHUwMDE0QFWGI8hcdTAwMTQ8SVx1MDAwZsxccilv2O5Y1VF+3IDyc5k8oV61M1x1MDAwYvWvX75FYrTNc05cbqGhV4Y7vd6hPTk+O+1cdTAwMWaeRC+nSnyZXFyfrMu5poDlXHUwMDExpVIpJMxzh9wp58R+ulx1MDAxZoWSUCeXX35xXHUwMDAymFwiiCWFPatJSKoq2fKDNlvSV0g/2Zh0ml5cbr3Vb97L+jcnUKfnqLLxzVmgjn/+RHnnPa1w/7vkekpdLieBZjZcbq6jRTpcdO/z/VY2XHLdXHUwMDBifSpX9GlcdTAwMTiEx4n/XHUwMDEwXHUwMDE3XHUwMDFmYu85XG7nrTJIvz2mXHUwMDFm9/Z/OrFcdTAwMGWiMF2Abzvf/lx1MDAwYmrtdfwifQ==<!-- payload-end --></metadata><defs><style class="style-fonts">
      </style></defs><rect x="0" y="0" width="40769.82749367478" height="4382.493291420685" fill="#ffffff"></rect><g stroke-linecap="round" transform="translate(1339.5358182890172 2030.5759208110649) rotate(0 69 98)"><path d="M88.19 3.31 C96.89 5.48, 106.28 15.66, 113.51 24.4 C120.75 33.15, 127.53 43.89, 131.58 55.78 C135.63 67.68, 137.63 82.42, 137.8 95.76 C137.97 109.1, 136.25 123.69, 132.62 135.8 C128.99 147.9, 122.85 159.2, 116.04 168.39 C109.23 177.57, 100.59 186.42, 91.76 190.92 C82.93 195.43, 72.29 196.6, 63.04 195.41 C53.78 194.22, 44.36 190.23, 36.23 183.79 C28.1 177.35, 19.94 167.37, 14.27 156.76 C8.59 146.15, 4.43 132.81, 2.16 120.15 C-0.1 107.48, -1.01 93.79, 0.66 80.79 C2.32 67.78, 6.76 53.31, 12.15 42.11 C17.54 30.92, 25 20.57, 33.01 13.63 C41.02 6.69, 50.7 2.07, 60.22 0.48 C69.74 -1.11, 84.77 2.75, 90.13 4.09 C95.49 5.43, 92.65 6.67, 92.37 8.5 M50.32 4.15 C58.86 -0.45, 70.64 -0.26, 79.92 1.38 C89.2 3.02, 98.32 6.79, 105.99 13.99 C113.65 21.19, 120.67 33.5, 125.91 44.58 C131.14 55.65, 135.53 67.55, 137.39 80.41 C139.26 93.28, 139.67 108.58, 137.11 121.75 C134.55 134.91, 127.82 148.78, 122.05 159.4 C116.28 170.02, 110.72 179.56, 102.5 185.47 C94.27 191.38, 82.41 194.18, 72.71 194.88 C63.01 195.57, 52.69 194.17, 44.3 189.62 C35.91 185.07, 28.8 176.71, 22.39 167.57 C15.98 158.43, 9.65 147.17, 5.84 134.79 C2.03 122.41, -0.48 106.5, -0.45 93.31 C-0.43 80.12, 1.56 67.35, 5.98 55.62 C10.41 43.9, 18.5 31.8, 26.09 22.94 C33.68 14.08, 47.54 5.37, 51.52 2.46 C55.5 -0.44, 49.96 3.66, 49.95 5.51" stroke="#1e1e1e" stroke-width="2" fill="none"></path></g><g stroke-linecap="round"><g transform="translate(1420.5358182890172 2096.575920811065) rotate(0 181 3)"><path d="M-0.84 -0.32 C59.54 0.66, 302.23 4.26, 362.65 5.34 M0.92 -1.54 C61.17 -0.36, 302.08 5.01, 362.04 6.54" stroke="#1e1e1e" stroke-width="2" fill="none"></path></g></g><mask></mask><g stroke-linecap="round"><g transform="translate(1478.5358182890172 2201.575920811065) rotate(0 238.5 7)"><path d="M0.07 -0.97 C79.62 1.37, 397.84 11.23, 477.26 13.57 M-1.35 1.14 C78.06 3.68, 396.96 12.75, 476.46 14.88" stroke="#1e1e1e" stroke-width="2" fill="none"></path></g><g transform="translate(1478.5358182890172 2201.575920811065) rotate(0 238.5 7)"><path d="M452.74 22.77 C458.29 20.82, 466.34 17.35, 476.46 14.88 M452.74 22.77 C458.14 21.72, 462.73 18.66, 476.46 14.88" stroke="#1e1e1e" stroke-width="2" fill="none"></path></g><g transform="translate(1478.5358182890172 2201.575920811065) rotate(0 238.5 7)"><path d="M453.21 5.68 C458.56 8.88, 466.46 10.55, 476.46 14.88 M453.21 5.68 C458.6 8.44, 463.08 9.2, 476.46 14.88" stroke="#1e1e1e" stroke-width="2" fill="none"></path></g></g><mask></mask><g stroke-linecap="round" transform="translate(1611.259786149274 1933.9543107778352) rotate(0 141.93782088481967 117.91188766212883)"><path d="M168.73 1.36 C183.3 1.88, 197.71 9.18, 210.84 15.5 C223.97 21.82, 237.07 29.95, 247.49 39.29 C257.91 48.63, 267.43 59.71, 273.38 71.55 C279.32 83.39, 282.31 97.31, 283.17 110.34 C284.02 123.37, 282.56 137.37, 278.49 149.71 C274.42 162.05, 267.21 173.91, 258.75 184.39 C250.29 194.88, 239.84 204.88, 227.73 212.62 C215.61 220.36, 200.76 226.87, 186.07 230.82 C171.39 234.76, 155.04 236.46, 139.61 236.26 C124.19 236.06, 108.04 234.11, 93.52 229.6 C79 225.1, 64.6 217.25, 52.49 209.24 C40.39 201.23, 29.15 192.26, 20.89 181.55 C12.62 170.84, 6.23 157.57, 2.92 144.98 C-0.39 132.39, -0.54 118.66, 1.01 106 C2.56 93.35, 5.9 80.66, 12.23 69.05 C18.57 57.43, 28.39 45.54, 39 36.3 C49.6 27.07, 62.27 19.61, 75.86 13.64 C89.44 7.68, 104.33 2.29, 120.51 0.53 C136.69 -1.23, 163.05 2.11, 172.95 3.09 C182.84 4.07, 180.34 4.67, 179.89 6.43 M92.47 6.46 C105.22 0.61, 122.98 0.02, 138.48 -0.02 C153.98 -0.06, 170.83 2.16, 185.49 6.22 C200.14 10.29, 214.03 16.89, 226.39 24.37 C238.76 31.86, 251.02 40.54, 259.67 51.14 C268.32 61.75, 274.47 75.77, 278.3 88.02 C282.13 100.26, 283.68 111.92, 282.65 124.59 C281.62 137.27, 277.77 151.88, 272.12 164.06 C266.46 176.23, 258.84 188.13, 248.71 197.64 C238.59 207.16, 224.8 215.2, 211.37 221.13 C197.93 227.07, 183.15 231.11, 168.11 233.25 C153.08 235.39, 136.54 235.72, 121.14 233.98 C105.74 232.23, 89.22 228.5, 75.72 222.77 C62.23 217.03, 50.5 209.08, 40.17 199.57 C29.84 190.05, 20.15 177.18, 13.74 165.69 C7.33 154.2, 3.42 142.96, 1.72 130.6 C0.01 118.25, 0.13 104.13, 3.51 91.57 C6.9 79.01, 13.93 66.14, 22.04 55.25 C30.15 44.35, 40.28 34.15, 52.19 26.23 C64.11 18.3, 86.54 10.68, 93.54 7.71 C100.53 4.73, 93.38 6.6, 94.15 8.38" stroke="#1e1e1e" stroke-width="2" fill="none"></path></g><g stroke-linecap="round" transform="translate(1727.3275366903379 2265.6800602524863) rotate(0 426.68785156900685 20.50151839370602)"><path d="M340.09 0.59 C368.34 -0.19, 404.71 -0.13, 436.36 -0.06 C468.01 0.02, 499.39 0.7, 529.99 1.05 C560.6 1.39, 591.77 1.34, 619.98 2.02 C648.18 2.71, 674.97 4.3, 699.22 5.18 C723.47 6.06, 746.31 6.17, 765.47 7.32 C784.64 8.47, 800.88 10.6, 814.22 12.09 C827.57 13.58, 839.09 14.93, 845.53 16.27 C851.97 17.6, 853.81 18.54, 852.85 20.1 C851.89 21.67, 847.46 24.15, 839.79 25.64 C832.12 27.13, 821.14 27.84, 806.83 29.05 C792.53 30.26, 774.22 31.66, 753.96 32.92 C733.71 34.19, 710.35 35.68, 685.3 36.63 C660.24 37.58, 632.36 37.93, 603.63 38.61 C574.9 39.3, 544.07 40.41, 512.94 40.74 C481.82 41.07, 448.5 40.74, 416.89 40.58 C385.28 40.42, 354.01 40.15, 323.26 39.77 C292.52 39.38, 260.67 38.78, 232.43 38.28 C204.18 37.77, 177.82 37.66, 153.78 36.74 C129.75 35.83, 107.42 34.02, 88.22 32.78 C69.02 31.54, 51.92 30.63, 38.6 29.29 C25.28 27.96, 14.77 26.38, 8.29 24.76 C1.82 23.13, -1.05 20.96, -0.26 19.53 C0.53 18.11, 5.22 17.48, 13.04 16.18 C20.86 14.88, 32.47 13.1, 46.65 11.74 C60.82 10.38, 77.74 9.33, 98.09 8.05 C118.43 6.76, 143.3 5.03, 168.7 4.02 C194.11 3.01, 218.53 2.69, 250.51 1.98 C282.48 1.28, 338.79 0.04, 360.57 -0.21 C382.35 -0.46, 380.02 0.12, 381.18 0.49 M302.5 0.15 C329.36 -0.52, 364.79 0.96, 396.52 0.76 C428.24 0.55, 461.44 -0.99, 492.85 -1.08 C524.25 -1.18, 555.96 -0.76, 584.96 0.18 C613.96 1.13, 641.05 3.34, 666.84 4.59 C692.62 5.85, 717.89 6.7, 739.69 7.7 C761.49 8.7, 781.85 9.38, 797.63 10.6 C813.4 11.81, 825.16 13.72, 834.32 14.99 C843.48 16.25, 850.48 16.81, 852.61 18.18 C854.73 19.54, 852.07 21.59, 847.05 23.17 C842.02 24.75, 833.74 26.34, 822.45 27.66 C811.16 28.99, 796.85 29.76, 779.33 31.12 C761.8 32.48, 740.78 34.53, 717.3 35.81 C693.81 37.09, 666.22 38.27, 638.44 38.83 C610.65 39.39, 580.56 38.68, 550.61 39.16 C520.65 39.64, 490.15 41.51, 458.71 41.7 C427.27 41.9, 393.56 40.63, 361.96 40.32 C330.36 40.01, 298.32 40.54, 269.09 39.85 C239.86 39.15, 212.61 36.94, 186.59 36.16 C160.57 35.37, 134.57 36.21, 112.96 35.15 C91.36 34.1, 72.47 31.47, 56.95 29.82 C41.43 28.17, 29.04 26.61, 19.85 25.24 C10.66 23.87, 4.24 22.77, 1.8 21.61 C-0.64 20.44, 0.65 19.91, 5.2 18.25 C9.76 16.6, 17.36 13.3, 29.12 11.68 C40.88 10.07, 57.95 9.55, 75.76 8.57 C93.57 7.59, 112.96 6.64, 136 5.78 C159.03 4.92, 186.51 4.41, 213.96 3.41 C241.41 2.42, 285.63 -0.09, 300.68 -0.2 C315.73 -0.3, 301.74 2.22, 304.28 2.78" stroke="#1e1e1e" stroke-width="2" fill="none"></path></g><g stroke-linecap="round" transform="translate(1745.3625737615407 1700.762808727051) rotate(0 494.80979329963986 108.94894531368209)"><path d="M373.89 3.21 C402.46 -0.26, 439.4 0.71, 472.35 0.42 C505.3 0.13, 538.9 0.46, 571.58 1.47 C604.26 2.47, 637.26 3.78, 668.43 6.44 C699.61 9.1, 730.44 13.37, 758.63 17.44 C786.83 21.51, 813.82 25.81, 837.6 30.87 C861.38 35.93, 882.39 41.9, 901.3 47.8 C920.21 53.7, 937.88 59.63, 951.07 66.27 C964.25 72.91, 973.96 80.54, 980.4 87.66 C986.84 94.78, 989.93 101.71, 989.72 108.99 C989.5 116.27, 985.89 124.15, 979.11 131.33 C972.34 138.52, 962.4 145.42, 949.05 152.1 C935.7 158.78, 918.17 165.36, 899.03 171.43 C879.89 177.5, 858.38 183.43, 834.23 188.53 C810.07 193.62, 782.31 198.05, 754.11 201.99 C725.9 205.93, 696.24 209.59, 664.99 212.18 C633.73 214.77, 599.66 216.75, 566.6 217.54 C533.54 218.32, 499.52 217.52, 466.63 216.9 C433.74 216.29, 401.08 215.51, 369.24 213.87 C337.4 212.23, 305.4 210.3, 275.58 207.07 C245.76 203.84, 216.56 199.04, 190.33 194.49 C164.1 189.93, 139.84 185.42, 118.2 179.75 C96.56 174.08, 76.58 167.02, 60.5 160.46 C44.42 153.91, 31.46 147.18, 21.72 140.43 C11.97 133.69, 5.32 127.02, 2.06 120 C-1.21 112.98, -1.46 105.71, 2.12 98.29 C5.7 90.88, 13.29 82.69, 23.54 75.51 C33.8 68.33, 47.53 61.36, 63.65 55.2 C79.76 49.03, 98.46 43.96, 120.23 38.52 C141.99 33.08, 167.84 27.21, 194.24 22.55 C220.65 17.89, 247.54 13.67, 278.65 10.54 C309.76 7.42, 362.39 4.79, 380.91 3.8 C399.43 2.81, 387.82 2.94, 389.77 4.61 M352.61 4.27 C380.31 0.92, 417.64 2.12, 450.45 1.31 C483.26 0.5, 516.38 -1.2, 549.48 -0.58 C582.59 0.04, 617.6 2.49, 649.07 5.03 C680.54 7.57, 709.71 10.84, 738.33 14.63 C766.95 18.42, 795.85 23.19, 820.79 27.77 C845.73 32.35, 867.94 36.16, 887.99 42.13 C908.05 48.09, 926.36 56.72, 941.11 63.55 C955.87 70.38, 968.48 76.18, 976.53 83.12 C984.57 90.07, 988.28 97.81, 989.38 105.22 C990.47 112.63, 988.35 120.39, 983.1 127.58 C977.86 134.78, 969.89 141.76, 957.92 148.38 C945.95 154.99, 929.22 161.42, 911.29 167.28 C893.36 173.13, 873.18 178.06, 850.34 183.5 C827.5 188.95, 802.03 195.66, 774.25 199.92 C746.46 204.18, 714.36 206.52, 683.63 209.08 C652.9 211.63, 622.4 213.85, 589.85 215.26 C557.31 216.67, 521.84 217.29, 488.38 217.56 C454.91 217.83, 421.21 218.47, 389.06 216.88 C356.9 215.3, 325.6 211.06, 295.43 208.03 C265.26 205, 234.99 202.78, 208.05 198.68 C181.1 194.58, 156.59 188.91, 133.76 183.43 C110.92 177.96, 88.6 172.34, 71.03 165.82 C53.46 159.3, 39.6 151.06, 28.33 144.3 C17.06 137.55, 7.84 132.15, 3.43 125.28 C-0.98 118.42, -0.28 110.81, 1.87 103.1 C4.02 95.4, 7.62 86.34, 16.33 79.03 C25.04 71.72, 38.9 65.61, 54.12 59.26 C69.35 52.9, 87.36 46.61, 107.69 40.9 C128.03 35.19, 150.79 29.4, 176.13 24.99 C201.47 20.59, 230.49 18.1, 259.73 14.48 C288.97 10.85, 335.74 4.42, 351.58 3.23 C367.43 2.03, 352.2 5.19, 354.77 7.32" stroke="#1e1e1e" stroke-width="2" fill="none"></path></g><g stroke-linecap="round" transform="translate(10 10) rotate(0 2035.574637736717 1985.7394771141612)"><path d="M2355.83 25.69 C2416.42 1.49, 2472.22 44.98, 2529.84 58.81 C2587.46 72.63, 2645.39 89.56, 2701.54 108.64 C2757.69 127.72, 2812.83 149.74, 2866.75 173.29 C2920.66 196.85, 2973.41 221.97, 3025.03 249.96 C3076.64 277.94, 3127.58 308.98, 3176.43 341.2 C3225.29 373.42, 3272.35 407.07, 3318.16 443.29 C3363.97 479.51, 3408.73 518.15, 3451.27 558.52 C3493.81 598.89, 3534.7 641.68, 3573.38 685.52 C3612.06 729.36, 3648.58 775, 3683.34 821.58 C3718.11 868.15, 3751.41 915.68, 3781.97 964.95 C3812.53 1014.22, 3840.97 1065.11, 3866.69 1117.21 C3892.42 1169.3, 3915.15 1223.55, 3936.29 1277.52 C3957.43 1331.49, 3977.27 1385.76, 3993.55 1441.02 C4009.83 1496.29, 4022.82 1552.31, 4033.97 1609.09 C4045.13 1665.87, 4054.46 1724.25, 4060.47 1781.69 C4066.48 1839.12, 4069.05 1896.1, 4070.05 1953.69 C4071.06 2011.27, 4070.66 2069.5, 4066.5 2127.19 C4062.34 2184.88, 4054.62 2242.85, 4045.07 2299.85 C4035.52 2356.85, 4023.52 2413.34, 4009.19 2469.19 C3994.86 2525.03, 3978.2 2580.57, 3959.11 2634.92 C3940.02 2689.27, 3918.86 2742.55, 3894.63 2795.3 C3870.4 2848.04, 3842.63 2901.03, 3813.75 2951.39 C3784.88 3001.75, 3754.34 3049.81, 3721.39 3097.44 C3688.43 3145.07, 3653.19 3192.39, 3616.02 3237.17 C3578.86 3281.95, 3539.71 3324.66, 3498.41 3366.12 C3457.11 3407.58, 3412.83 3447.83, 3368.24 3485.93 C3323.64 3524.03, 3278.57 3560.81, 3230.84 3594.71 C3183.11 3628.61, 3132.67 3659.82, 3081.84 3689.32 C3031 3718.82, 2978.96 3746.39, 2925.84 3771.71 C2872.73 3797.03, 2818.39 3820.69, 2763.14 3841.23 C2707.88 3861.77, 2651.34 3879.16, 2594.34 3894.95 C2537.33 3910.73, 2479.35 3924.83, 2421.08 3935.96 C2362.81 3947.09, 2303.4 3956, 2244.71 3961.73 C2186.02 3967.47, 2127.97 3969.5, 2068.95 3970.38 C2009.92 3971.25, 1949.7 3971.06, 1890.55 3966.99 C1831.39 3962.92, 1772.39 3955.25, 1714.01 3945.97 C1655.63 3936.69, 1597.38 3925.16, 1540.25 3911.32 C1483.12 3897.48, 1427.16 3881.66, 1371.25 3862.94 C1315.33 3844.21, 1258.81 3822.44, 1204.76 3798.97 C1150.72 3775.5, 1098.58 3750.29, 1046.99 3722.1 C995.4 3693.91, 944.29 3662.38, 895.23 3629.84 C846.17 3597.3, 798.69 3563.29, 752.6 3526.87 C706.51 3490.45, 661.08 3451.28, 618.68 3411.32 C576.28 3371.36, 536.69 3330.63, 498.2 3287.1 C459.71 3243.58, 422.71 3196.88, 387.74 3150.19 C352.77 3103.49, 318.93 3056.23, 288.38 3006.93 C257.82 2957.62, 230.13 2906.43, 204.39 2854.36 C178.66 2802.29, 155.06 2748.45, 133.95 2694.51 C112.85 2640.56, 93.79 2586.14, 77.76 2530.69 C61.74 2475.23, 49.1 2418.47, 37.79 2361.8 C26.48 2305.13, 16.11 2247.91, 9.92 2190.65 C3.73 2133.39, 1.35 2076.01, 0.66 2018.25 C-0.02 1960.49, 1.73 1901.72, 5.81 1844.1 C9.89 1786.47, 15.92 1729.37, 25.15 1672.51 C34.37 1615.64, 46.73 1558.96, 61.13 1502.89 C75.54 1446.82, 92.38 1390.46, 111.6 1336.08 C130.81 1281.7, 152.31 1229.12, 176.4 1176.62 C200.5 1124.11, 227.41 1071.78, 256.17 1021.05 C284.93 970.33, 315.83 920.15, 348.95 872.26 C382.07 824.37, 417.56 778.46, 454.91 733.73 C492.26 689, 531.88 645.45, 573.04 603.89 C614.2 562.33, 657.02 521.96, 701.86 484.38 C746.69 446.8, 794.16 411.97, 842.06 378.4 C889.96 344.83, 938.49 312.83, 989.26 282.97 C1040.03 253.11, 1093.59 224.61, 1146.68 199.26 C1199.77 173.92, 1252.73 151.4, 1307.8 130.9 C1362.88 110.41, 1419.96 91.96, 1477.13 76.29 C1534.3 60.62, 1592.78 47.67, 1650.84 36.87 C1708.9 26.07, 1766.84 17.53, 1825.49 11.5 C1884.13 5.47, 1943.64 1.78, 2002.72 0.69 C2061.8 -0.39, 2116.94 0.26, 2179.96 4.99 C2242.97 9.72, 2344.6 18.04, 2380.81 29.06 C2417.03 40.08, 2403.01 38.68, 2397.26 71.11 M2722.91 117.61 C2786.93 104.99, 2831.71 156.64, 2885.48 180.67 C2939.25 204.7, 2994.14 232.88, 3045.51 261.79 C3096.89 290.7, 3145.11 321.47, 3193.75 354.12 C3242.39 386.77, 3291.74 420.97, 3337.36 457.69 C3382.98 494.42, 3425.43 534.02, 3467.47 574.48 C3509.5 614.94, 3551.31 656.43, 3589.58 700.43 C3627.85 744.43, 3663.23 791.12, 3697.09 838.5 C3730.95 885.87, 3762.75 934.76, 3792.76 984.69 C3822.77 1034.62, 3851.59 1086.22, 3877.16 1138.1 C3902.74 1189.97, 3925.64 1242.19, 3946.2 1295.95 C3966.76 1349.7, 3985.38 1404.67, 4000.53 1460.63 C4015.67 1516.6, 4026.92 1575, 4037.08 1631.75 C4047.24 1688.51, 4055.9 1743.95, 4061.49 1801.16 C4067.08 1858.37, 4070.03 1917.23, 4070.61 1974.99 C4071.18 2032.75, 4069.52 2090.03, 4064.93 2147.73 C4060.35 2205.43, 4053.04 2264.05, 4043.11 2321.22 C4033.19 2378.38, 4020.73 2435.09, 4005.39 2490.71 C3990.04 2546.34, 3971.13 2600.54, 3951.06 2654.94 C3931 2709.34, 3909.67 2764.44, 3885 2817.12 C3860.33 2869.79, 3832.13 2921.03, 3803.05 2970.99 C3773.97 3020.96, 3744.09 3069.77, 3710.53 3116.9 C3676.97 3164.03, 3639.91 3209.39, 3601.69 3253.78 C3563.46 3298.17, 3522.71 3341.95, 3481.18 3383.25 C3439.65 3424.56, 3397.29 3464.34, 3352.51 3501.62 C3307.72 3538.9, 3260.62 3573.86, 3212.49 3606.92 C3164.36 3639.98, 3114.8 3670.73, 3063.73 3699.98 C3012.66 3729.22, 2959.52 3757.62, 2906.08 3782.41 C2852.64 3807.2, 2798.52 3828.73, 2743.08 3848.7 C2687.64 3868.66, 2630.53 3887.28, 2573.43 3902.2 C2516.33 3917.12, 2458.78 3928.08, 2400.47 3938.2 C2342.17 3948.32, 2282.89 3957.53, 2223.6 3962.93 C2164.32 3968.33, 2103.88 3970.18, 2044.76 3970.61 C1985.64 3971.03, 1927.62 3970.27, 1868.89 3965.47 C1810.16 3960.68, 1750.78 3951.73, 1692.39 3941.82 C1634 3931.92, 1575.78 3920.24, 1518.56 3906.03 C1461.34 3891.82, 1404.76 3875.73, 1349.08 3856.58 C1293.39 3837.42, 1238.05 3815.46, 1184.46 3791.1 C1130.86 3766.73, 1078.61 3739, 1027.49 3710.39 C976.37 3681.78, 926.5 3652.26, 877.74 3619.44 C828.98 3586.62, 780.81 3550.56, 734.94 3513.48 C689.08 3476.4, 644.68 3437.6, 602.53 3396.97 C560.39 3356.33, 520.2 3313.55, 482.06 3269.65 C443.92 3225.76, 407.92 3180.5, 373.67 3133.58 C339.42 3086.66, 306.26 3038.05, 276.55 2988.12 C246.84 2938.18, 220.51 2886.29, 195.41 2833.97 C170.31 2781.66, 146.3 2728.34, 125.94 2674.24 C105.58 2620.14, 89.02 2564.87, 73.26 2509.38 C57.51 2453.89, 42.32 2398.14, 31.41 2341.29 C20.5 2284.44, 13.08 2225.98, 7.79 2168.29 C2.5 2110.61, -0.15 2052.86, -0.36 1995.17 C-0.57 1937.49, 1.83 1879.37, 6.52 1822.19 C11.2 1765.01, 17.84 1708.77, 27.73 1652.1 C37.62 1595.43, 50.78 1537.99, 65.85 1482.19 C80.92 1426.38, 98.12 1371.68, 118.16 1317.27 C138.2 1262.87, 161.33 1208.2, 186.11 1155.75 C210.89 1103.3, 237.42 1052.65, 266.82 1002.58 C296.23 952.51, 328.83 902.9, 362.54 855.34 C396.26 807.79, 431.46 761.62, 469.12 717.26 C506.77 672.89, 546.64 630.28, 588.46 589.17 C630.29 548.07, 675.07 508.18, 720.06 470.63 C765.05 433.08, 810.33 397, 858.41 363.87 C906.48 330.73, 957.35 300.77, 1008.51 271.84 C1059.66 242.9, 1111.87 214.96, 1165.34 190.25 C1218.81 165.55, 1273.92 143.45, 1329.35 123.6 C1384.78 103.75, 1440.83 86.58, 1497.91 71.15 C1554.98 55.73, 1613.66 41.69, 1671.8 31.03 C1729.93 20.38, 1787.73 12.63, 1846.71 7.21 C1905.69 1.79, 1966.53 -1.23, 2025.68 -1.46 C2084.84 -1.7, 2142.78 0.59, 2201.62 5.78 C2260.47 10.97, 2320.34 19.65, 2378.76 29.67 C2437.18 39.69, 2494.75 51.65, 2552.13 65.89 C2609.51 80.14, 2696.82 100.62, 2723.04 115.16 C2749.27 129.7, 2721.28 121.97, 2709.46 153.14" stroke="#1e1e1e" stroke-width="2" fill="none"></path></g><g stroke-linecap="round" transform="translate(4502.83140381814 286.0101203710806) rotate(0 2066.2424288890593 1966.572107643947)"><path d="M1614.38 47.77 C1662.57 3.82, 1731.57 24.58, 1791.02 17.11 C1850.46 9.65, 1911.16 5.54, 1971.03 2.96 C2030.91 0.37, 2090.24 -0.65, 2150.27 1.6 C2210.3 3.84, 2271.64 8.99, 2331.21 16.45 C2390.79 23.91, 2449.31 34.12, 2507.72 46.37 C2566.14 58.63, 2624.36 73.05, 2681.71 89.98 C2739.06 106.91, 2796.09 126.39, 2851.84 147.95 C2907.59 169.51, 2963.01 193.01, 3016.22 219.34 C3069.44 245.66, 3120.56 275.39, 3171.13 305.9 C3221.71 336.41, 3271.78 367.9, 3319.68 402.41 C3367.58 436.92, 3414.04 474.48, 3458.51 512.97 C3502.99 551.46, 3546.03 591.29, 3586.53 633.33 C3627.04 675.37, 3664.81 719.66, 3701.56 765.21 C3738.31 810.75, 3774.51 858.45, 3807.05 906.61 C3839.59 954.77, 3869.04 1003.69, 3896.79 1054.16 C3924.54 1104.62, 3950.38 1156.57, 3973.57 1209.39 C3996.75 1262.22, 4017.71 1316.73, 4035.89 1371.11 C4054.07 1425.5, 4069.67 1479.98, 4082.67 1535.69 C4095.67 1591.39, 4106.12 1648.54, 4113.9 1705.37 C4121.68 1762.19, 4126.46 1819.78, 4129.36 1876.63 C4132.27 1933.48, 4133.68 1989.46, 4131.32 2046.49 C4128.96 2103.52, 4123.03 2162.12, 4115.18 2218.82 C4107.33 2275.52, 4097.04 2331.04, 4084.21 2386.68 C4071.38 2442.31, 4055.88 2497.89, 4038.21 2552.61 C4020.54 2607.34, 4001.05 2662.05, 3978.19 2715.02 C3955.34 2767.99, 3928.71 2819.63, 3901.08 2870.43 C3873.45 2921.24, 3844.42 2971.75, 3812.39 3019.86 C3780.36 3067.97, 3745.41 3113.9, 3708.91 3159.1 C3672.41 3204.3, 3634 3248.9, 3593.37 3291.06 C3552.75 3333.23, 3509.23 3373.23, 3465.16 3412.1 C3421.09 3450.98, 3376.24 3489.35, 3328.96 3524.31 C3281.68 3559.28, 3232.28 3591.04, 3181.46 3621.88 C3130.64 3652.72, 3077.38 3682.67, 3024.04 3709.36 C2970.7 3736.06, 2916.69 3760.24, 2861.41 3782.05 C2806.12 3803.86, 2749.52 3822.99, 2692.33 3840.24 C2635.14 3857.5, 2576.64 3873.07, 2518.27 3885.6 C2459.89 3898.13, 2401.68 3907.86, 2342.08 3915.44 C2282.49 3923.01, 2220.75 3928.28, 2160.7 3931.05 C2100.65 3933.81, 2041.49 3934.43, 1981.78 3932.01 C1922.07 3929.58, 1862.09 3923.9, 1802.43 3916.51 C1742.77 3909.11, 1682.58 3899.77, 1623.83 3887.65 C1565.08 3875.52, 1507.22 3860.92, 1449.95 3843.76 C1392.68 3826.61, 1335.84 3806.31, 1280.2 3784.72 C1224.57 3763.13, 1169.49 3740.33, 1116.14 3714.24 C1062.8 3688.16, 1010.82 3659.09, 960.13 3628.2 C909.43 3597.32, 859.72 3563.72, 811.99 3528.95 C764.26 3494.18, 718.04 3458.03, 673.75 3419.6 C629.46 3381.16, 586.9 3340.48, 546.25 3298.34 C505.61 3256.21, 466.38 3211.8, 429.87 3166.77 C393.36 3121.74, 359.55 3076, 327.18 3028.17 C294.81 2980.34, 263.46 2930.62, 235.65 2879.8 C207.83 2828.98, 183.5 2776.1, 160.29 2723.24 C137.08 2670.39, 114.74 2617.02, 96.38 2562.68 C78.02 2508.35, 62.97 2452.81, 50.13 2397.21 C37.3 2341.62, 27.35 2285.63, 19.36 2229.13 C11.36 2172.64, 5.12 2115.41, 2.17 2058.26 C-0.77 2001.12, -0.73 1943.48, 1.68 1886.24 C4.09 1829, 8.9 1771.5, 16.65 1714.82 C24.41 1658.15, 35.24 1602.12, 48.23 1546.19 C61.22 1490.26, 76.68 1433.96, 94.58 1379.24 C112.48 1324.53, 132.78 1270.55, 155.63 1217.92 C178.49 1165.3, 204.27 1114.01, 231.72 1063.49 C259.17 1012.98, 288.15 963.29, 320.31 914.85 C352.47 866.41, 388.29 818.23, 424.67 772.84 C461.05 727.45, 498.19 684.75, 538.58 642.53 C578.97 600.32, 622.63 558.25, 667 519.56 C711.37 480.87, 757.39 445.21, 804.79 410.39 C852.19 375.58, 900.94 341.49, 951.4 310.67 C1001.86 279.86, 1054.46 251.98, 1107.56 225.49 C1160.65 199, 1214.55 173.91, 1269.95 151.71 C1325.35 129.51, 1376.14 110.79, 1439.97 92.27 C1503.79 73.76, 1609.71 43.97, 1652.93 40.64 C1696.14 37.31, 1692.56 40.16, 1699.27 72.3 M1227.65 167.55 C1266 115.46, 1338.86 124.16, 1395.91 105.72 C1452.97 87.27, 1511.44 70.39, 1569.98 56.86 C1628.51 43.33, 1687.77 33.08, 1747.11 24.53 C1806.46 15.97, 1866.49 9.62, 1926.05 5.54 C1985.61 1.46, 2044.56 -1.12, 2104.46 0.05 C2164.35 1.22, 2225.67 6.24, 2285.41 12.56 C2345.14 18.88, 2403.74 27.13, 2462.87 37.97 C2522.01 48.81, 2582.42 62.06, 2640.2 77.59 C2697.99 93.12, 2754.03 110.61, 2809.6 131.17 C2865.16 151.74, 2919.6 175.54, 2973.58 200.96 C3027.56 226.39, 3081.77 254.26, 3133.5 283.72 C3185.23 313.19, 3235.32 344.38, 3283.97 377.76 C3332.62 411.13, 3380.15 446.29, 3425.39 483.98 C3470.63 521.67, 3513.74 562.61, 3555.4 603.91 C3597.06 645.2, 3637.62 687.33, 3675.35 731.73 C3713.08 776.14, 3748.36 823.24, 3781.8 870.35 C3815.23 917.46, 3847.06 964.58, 3875.96 1014.4 C3904.87 1064.22, 3931.29 1116.97, 3955.22 1169.28 C3979.16 1221.58, 4000.09 1274.05, 4019.57 1328.22 C4039.05 1382.39, 4057.45 1438.93, 4072.09 1494.32 C4086.74 1549.71, 4098.24 1604.3, 4107.44 1660.56 C4116.65 1716.82, 4123.24 1774.44, 4127.32 1831.87 C4131.4 1889.3, 4133.07 1947.75, 4131.93 2005.17 C4130.78 2062.58, 4126.69 2119.82, 4120.45 2176.38 C4114.22 2232.93, 4105.81 2288.46, 4094.52 2344.5 C4083.23 2400.54, 4069.46 2457.71, 4052.69 2512.64 C4035.91 2567.56, 4015.85 2620.95, 3993.88 2674.03 C3971.92 2727.12, 3947.41 2779.87, 3920.9 2831.13 C3894.39 2882.39, 3865.72 2932.55, 3834.83 2981.58 C3803.94 3030.61, 3770.99 3078.99, 3735.55 3125.32 C3700.12 3171.65, 3661.53 3216.64, 3622.2 3259.58 C3582.88 3302.52, 3542.67 3343.48, 3499.6 3382.96 C3456.53 3422.43, 3410.3 3460.51, 3363.75 3496.41 C3317.2 3532.31, 3270.26 3566.31, 3220.29 3598.34 C3170.32 3630.37, 3116.83 3661.07, 3063.94 3688.61 C3011.05 3716.14, 2957.68 3740.65, 2902.97 3763.57 C2848.26 3786.48, 2792.37 3807.59, 2735.67 3826.11 C2678.98 3844.64, 2621.25 3860.66, 2562.81 3874.72 C2504.38 3888.78, 2444.45 3901.4, 2385.07 3910.45 C2325.69 3919.5, 2266.35 3925.13, 2206.52 3929.03 C2146.69 3932.93, 2086.02 3935.01, 2026.1 3933.84 C1966.19 3932.66, 1906.67 3928.07, 1847.04 3921.97 C1787.41 3915.87, 1727.14 3908.21, 1668.34 3897.26 C1609.53 3886.32, 1551.83 3872.27, 1494.2 3856.32 C1436.57 3840.36, 1378.68 3822.06, 1322.54 3801.53 C1266.41 3781, 1211.09 3758.35, 1157.4 3733.13 C1103.71 3707.9, 1051.93 3679.93, 1000.41 3650.19 C948.88 3620.45, 896.97 3588.14, 848.26 3554.69 C799.56 3521.24, 753.33 3486.88, 708.18 3449.5 C663.03 3412.12, 618.98 3371.63, 577.36 3330.42 C535.73 3289.21, 496.16 3246.52, 458.41 3202.22 C420.66 3157.93, 384.34 3112.29, 350.88 3064.67 C317.42 3017.04, 286.72 2966.86, 257.64 2916.5 C228.57 2866.15, 200.66 2814.85, 176.42 2762.53 C152.18 2710.21, 131.65 2656.58, 112.21 2602.59 C92.77 2548.6, 74.29 2493.6, 59.76 2438.61 C45.23 2383.61, 34.22 2328.75, 25.04 2272.6 C15.86 2216.45, 8.62 2159.11, 4.7 2101.72 C0.78 2044.33, 0.15 1985.59, 1.53 1928.24 C2.9 1870.89, 6.96 1814.4, 12.94 1757.61 C18.93 1700.81, 26.08 1643.62, 37.44 1587.45 C48.79 1531.29, 64.49 1475.16, 81.06 1420.61 C97.64 1366.06, 115.49 1313.36, 136.9 1260.15 C158.31 1206.95, 182.75 1152.93, 209.51 1101.38 C236.27 1049.84, 266.24 999.53, 297.44 950.88 C328.63 902.24, 361.22 855.76, 396.65 809.53 C432.09 763.3, 470.68 716.71, 510.06 673.52 C549.43 630.33, 589.87 589.96, 632.92 550.37 C675.98 510.78, 721.73 472.11, 768.4 435.98 C815.07 399.86, 863.38 365.29, 912.97 333.62 C962.56 301.96, 1013.12 273.22, 1065.94 245.98 C1118.76 218.74, 1200.02 177.28, 1229.89 170.18 C1259.76 163.08, 1231.37 173.79, 1245.14 203.4" stroke="#1e1e1e" stroke-width="2" fill="none"></path></g><g stroke-linecap="round" transform="translate(9195.003450126505 140.338112397455) rotate(0 1847.7344169286207 1870.7352602928777)"><path d="M1642.16 11.3 C1691.74 -25.61, 1753.67 2.15, 1809.73 1.07 C1865.78 -0.01, 1922.79 0.92, 1978.5 4.83 C2034.22 8.73, 2088.96 15.56, 2144.03 24.49 C2199.09 33.42, 2254.72 44.15, 2308.9 58.4 C2363.07 72.65, 2416.19 90.65, 2469.1 109.99 C2522 129.34, 2575.46 150.89, 2626.33 174.49 C2677.19 198.09, 2725.84 223.31, 2774.31 251.59 C2822.78 279.88, 2871.26 311.29, 2917.13 344.2 C2963.01 377.11, 3007.19 412.18, 3049.56 449.06 C3091.93 485.94, 3132.35 524.65, 3171.35 565.48 C3210.36 606.31, 3248.32 650.07, 3283.6 694.03 C3318.88 737.99, 3351.91 782.2, 3383.04 829.24 C3414.16 876.28, 3443.44 926.2, 3470.35 976.26 C3497.27 1026.32, 3522.4 1077.68, 3544.53 1129.62 C3566.66 1181.55, 3585.78 1234.08, 3603.14 1287.86 C3620.5 1341.64, 3636.06 1396.99, 3648.69 1452.28 C3661.32 1507.57, 3671.51 1563.54, 3678.91 1619.62 C3686.31 1675.69, 3690.5 1732.11, 3693.08 1788.74 C3695.66 1845.36, 3696.86 1902.69, 3694.37 1959.35 C3691.87 2016, 3686.14 2072.54, 3678.09 2128.69 C3670.04 2184.84, 3658.93 2240.95, 3646.08 2296.24 C3633.22 2351.52, 3618.55 2406.57, 3600.95 2460.41 C3583.35 2514.24, 3562.99 2567.12, 3540.46 2619.24 C3517.93 2671.35, 3492.54 2723.41, 3465.76 2773.1 C3438.97 2822.8, 3410.81 2870.38, 3379.75 2917.41 C3348.68 2964.44, 3315 3011.48, 3279.36 3055.29 C3243.71 3099.11, 3205.23 3140, 3165.87 3180.31 C3126.51 3220.61, 3085.81 3260.14, 3043.22 3297.13 C3000.62 3334.13, 2955.95 3369.67, 2910.28 3402.27 C2864.61 3434.87, 2817.64 3464.65, 2769.21 3492.73 C2720.78 3520.8, 2670.68 3547.12, 2619.71 3570.73 C2568.73 3594.34, 2516.33 3615.44, 2463.36 3634.4 C2410.39 3653.35, 2356.2 3670.37, 2301.9 3684.46 C2247.6 3698.54, 2192.98 3710.02, 2137.55 3718.9 C2082.11 3727.78, 2025.35 3733.95, 1969.28 3737.73 C1913.22 3741.51, 1856.94 3743.12, 1801.16 3741.58 C1745.39 3740.04, 1690.02 3734.99, 1634.62 3728.47 C1579.22 3721.95, 1523.76 3714.15, 1468.77 3702.45 C1413.77 3690.76, 1358.18 3675.01, 1304.67 3658.31 C1251.16 3641.6, 1199.51 3623.53, 1147.7 3602.23 C1095.89 3580.94, 1043.44 3556.86, 993.79 3530.54 C944.13 3504.22, 896.78 3475.05, 849.74 3444.31 C802.71 3413.57, 755.74 3381.05, 711.57 3346.1 C667.4 3311.15, 625.59 3273.39, 584.75 3234.61 C543.91 3195.82, 503.95 3155.56, 466.55 3113.37 C429.14 3071.17, 393.44 3026.99, 360.32 2981.43 C327.2 2935.87, 296.63 2888.72, 267.83 2840.02 C239.03 2791.33, 212.01 2740.46, 187.52 2689.25 C163.03 2638.03, 141.01 2585.55, 120.87 2532.74 C100.72 2479.93, 81.91 2427.01, 66.64 2372.37 C51.36 2317.74, 39.17 2260.86, 29.23 2204.91 C19.28 2148.97, 11.77 2093.13, 6.97 2036.7 C2.17 1980.27, 0.14 1922.89, 0.43 1866.32 C0.73 1809.76, 3.49 1753.56, 8.73 1697.3 C13.97 1641.04, 21.81 1584.63, 31.85 1528.77 C41.89 1472.9, 53.81 1416.62, 68.95 1362.11 C84.09 1307.6, 102.59 1254.46, 122.68 1201.7 C142.77 1148.93, 164.61 1096.49, 189.49 1045.51 C214.37 994.54, 242.7 944.44, 271.97 895.85 C301.24 847.27, 332 799.49, 365.12 754 C398.25 708.5, 433.31 664.92, 470.73 622.89 C508.15 580.85, 548.41 540.44, 589.63 501.8 C630.86 463.16, 673.68 425.91, 718.08 391.04 C762.49 356.18, 808.81 322.97, 856.04 292.61 C903.28 262.24, 951.71 234.76, 1001.5 208.86 C1051.3 182.97, 1102.9 158.57, 1154.83 137.25 C1206.75 115.92, 1259.49 97.55, 1313.06 80.92 C1366.62 64.29, 1418.87 49.31, 1476.23 37.48 C1533.59 25.65, 1624.05 8.66, 1657.22 9.93 C1690.39 11.2, 1672.05 14, 1675.24 45.1 M1799.96 0.43 C1852.79 -32, 1913.72 -0.23, 1969.91 3.61 C2026.09 7.44, 2081.99 14.36, 2137.05 23.44 C2192.12 32.52, 2246.04 44.36, 2300.32 58.11 C2354.59 71.87, 2409.86 87.49, 2462.72 105.96 C2515.57 124.42, 2566.75 145.4, 2617.44 168.91 C2668.13 192.42, 2718.34 218.68, 2766.87 247 C2815.39 275.31, 2862.66 306.31, 2908.61 338.79 C2954.56 371.28, 2999.68 405.13, 3042.58 441.91 C3085.47 478.69, 3126.85 518.85, 3165.99 559.46 C3205.13 600.06, 3242.11 641.49, 3277.43 685.53 C3312.74 729.57, 3346.49 776.88, 3377.88 823.69 C3409.27 870.5, 3438.58 917.1, 3465.77 966.42 C3492.95 1015.74, 3518.63 1067.5, 3541 1119.61 C3563.38 1171.72, 3582.55 1225.18, 3600.01 1279.07 C3617.47 1332.96, 3632.96 1387.92, 3645.76 1442.96 C3658.56 1498, 3668.72 1553.22, 3676.82 1609.29 C3684.92 1665.37, 3691.47 1722.72, 3694.37 1779.42 C3697.28 1836.12, 3696.65 1892.73, 3694.26 1949.49 C3691.87 2006.25, 3687.58 2063.7, 3680.02 2119.96 C3672.46 2176.22, 3661.41 2231.68, 3648.89 2287.06 C3636.37 2342.44, 3622.23 2398.3, 3604.88 2452.24 C3587.52 2506.19, 3567.05 2558.78, 3544.76 2610.74 C3522.47 2662.69, 3497.85 2713.9, 3471.12 2763.95 C3444.39 2813.99, 3415.6 2863.96, 3384.38 2910.99 C3353.16 2958.03, 3319.28 3002.26, 3283.82 3046.16 C3248.36 3090.06, 3210.44 3133.62, 3171.61 3174.38 C3132.77 3215.14, 3093.17 3253.8, 3050.82 3290.71 C3008.46 3327.62, 2963.18 3363.03, 2917.46 3395.83 C2871.74 3428.62, 2824.76 3458.95, 2776.5 3487.48 C2728.23 3516.01, 2678.87 3543.12, 2627.88 3566.98 C2576.89 3590.85, 2523.62 3611.44, 2470.55 3630.67 C2417.49 3649.91, 2363.8 3668.19, 2309.48 3682.41 C2255.17 3696.64, 2199.89 3706.96, 2144.68 3716.03 C2089.47 3725.1, 2033.62 3732.66, 1978.21 3736.81 C1922.81 3740.97, 1867.94 3741.92, 1812.23 3740.98 C1756.53 3740.03, 1700.06 3737.16, 1644 3731.12 C1587.94 3725.08, 1530.98 3716.48, 1475.89 3704.73 C1420.79 3692.97, 1367.01 3677.16, 1313.41 3660.59 C1259.8 3644.02, 1206.27 3626.62, 1154.25 3605.31 C1102.22 3584.01, 1050.72 3558.89, 1001.26 3532.76 C951.8 3506.63, 904.67 3478.59, 857.51 3448.53 C810.35 3418.47, 762.85 3386.85, 718.28 3352.4 C673.71 3317.96, 630.85 3280.34, 590.1 3241.84 C549.34 3203.33, 511.21 3163.66, 473.75 3121.38 C436.29 3079.11, 398.91 3033.85, 365.32 2988.19 C331.73 2942.53, 301.41 2895.83, 272.2 2847.44 C243 2799.04, 215.13 2748.89, 190.12 2697.81 C165.11 2646.72, 142.04 2593.59, 122.15 2540.94 C102.26 2488.29, 85.66 2436.29, 70.77 2381.9 C55.89 2327.51, 43.54 2270.53, 32.87 2214.61 C22.2 2158.68, 12.36 2102.58, 6.75 2046.34 C1.14 1990.09, -1.08 1933.81, -0.78 1877.15 C-0.48 1820.48, 3.66 1763.21, 8.55 1706.33 C13.45 1649.46, 18.72 1591.79, 28.57 1535.91 C38.42 1480.03, 52.46 1425.61, 67.65 1371.04 C82.85 1316.48, 99.95 1261.66, 119.76 1208.52 C139.57 1155.38, 162.1 1102.88, 186.49 1052.21 C210.89 1001.54, 237.1 953.07, 266.11 904.5 C295.12 855.93, 327.49 806.89, 360.56 760.79 C393.63 714.7, 427.71 670.28, 464.53 627.92 C501.35 585.56, 540.63 545.45, 581.49 506.64 C622.35 467.83, 665.57 429.81, 709.7 395.05 C753.84 360.3, 798.87 328.45, 846.29 298.12 C893.72 267.8, 944.39 239.62, 994.27 213.08 C1044.15 186.55, 1094.1 160.62, 1145.57 138.92 C1197.05 117.21, 1249.58 99.37, 1303.12 82.83 C1356.66 66.3, 1412.06 51.26, 1466.82 39.72 C1521.58 28.18, 1576.02 20.2, 1631.68 13.6 C1687.33 7, 1772.52 -4.12, 1800.75 0.11 C1828.98 4.34, 1800.34 7.64, 1801.05 38.99" stroke="#1e1e1e" stroke-width="2" fill="none"></path></g><g stroke-linecap="round" transform="translate(13994.51276546807 339.6787548876796) rotate(0 1728.8967262132946 1682.8950394847814)"><path d="M1505.57 13.19 C1553.36 -21.19, 1615.2 2.49, 1670.06 0.98 C1724.91 -0.53, 1779.87 0.88, 1834.7 4.13 C1889.53 7.39, 1944.81 12.37, 1999.05 20.5 C2053.3 28.63, 2107.19 39.69, 2160.17 52.91 C2213.15 66.13, 2265.57 81.64, 2316.93 99.84 C2368.29 118.03, 2418.85 139.15, 2468.36 162.1 C2517.86 185.05, 2567.01 210.27, 2613.95 237.55 C2660.9 264.84, 2706.02 294.25, 2750.03 325.79 C2794.04 357.33, 2836.88 391.49, 2878.01 426.82 C2919.13 462.14, 2959.28 498.63, 2996.77 537.76 C3034.26 576.88, 3069.87 619.24, 3102.97 661.55 C3136.07 703.87, 3166.33 746.46, 3195.35 791.65 C3224.36 836.84, 3252.62 884.76, 3277.07 932.7 C3301.51 980.64, 3322.34 1029.64, 3342.03 1079.28 C3361.71 1128.91, 3380.37 1179.26, 3395.17 1230.53 C3409.97 1281.81, 3421.19 1334.54, 3430.82 1386.95 C3440.46 1439.35, 3448.52 1491.84, 3453 1544.98 C3457.48 1598.13, 3458.67 1652.32, 3457.72 1705.83 C3456.77 1759.34, 3453.14 1812.97, 3447.31 1866.06 C3441.49 1919.15, 3433.65 1972.33, 3422.75 2024.37 C3411.86 2076.4, 3398.06 2127.52, 3381.95 2178.24 C3365.84 2228.96, 3347.42 2279.24, 3326.07 2328.68 C3304.72 2378.13, 3279.87 2427.85, 3253.84 2474.91 C3227.81 2521.96, 3200.02 2566.71, 3169.87 2611.02 C3139.71 2655.32, 3107.19 2699.22, 3072.92 2740.74 C3038.66 2782.25, 3002.43 2821.86, 2964.27 2860.09 C2926.11 2898.32, 2885.82 2935.53, 2843.96 2970.1 C2802.11 3004.67, 2758.41 3037.28, 2713.14 3067.5 C2667.87 3097.72, 2620.23 3125.32, 2572.34 3151.41 C2524.44 3177.5, 2475.89 3202.38, 2425.79 3224.05 C2375.68 3245.72, 2323.57 3264.76, 2271.71 3281.42 C2219.86 3298.07, 2167.98 3312.32, 2114.65 3323.99 C2061.31 3335.66, 2006.33 3344.56, 1951.71 3351.43 C1897.09 3358.31, 1841.62 3363.24, 1786.92 3365.26 C1732.21 3367.27, 1677.95 3366.81, 1623.49 3363.53 C1569.03 3360.25, 1514.16 3354.05, 1460.14 3345.57 C1406.12 3337.08, 1352.43 3325.78, 1299.37 3312.61 C1246.3 3299.43, 1193.27 3284.54, 1141.77 3266.5 C1090.27 3248.47, 1039.85 3227.25, 990.35 3204.42 C940.85 3181.58, 891.87 3156.96, 844.77 3129.48 C797.67 3101.99, 751.99 3071.14, 707.72 3039.49 C663.45 3007.85, 620.34 2975.02, 579.16 2939.61 C537.99 2904.2, 497.91 2866.02, 460.66 2827.02 C423.41 2788.01, 388.81 2747.99, 355.67 2705.59 C322.54 2663.19, 290.9 2617.97, 261.85 2572.6 C232.79 2527.23, 205.8 2480.81, 181.35 2433.38 C156.9 2385.95, 134.82 2337.58, 115.14 2288 C95.47 2238.43, 77.94 2187.49, 63.31 2135.96 C48.68 2084.42, 36.82 2031.32, 27.35 1978.81 C17.87 1926.3, 11.04 1874.04, 6.48 1820.91 C1.92 1767.78, -0.52 1713.51, -0.02 1660.04 C0.48 1606.57, 3.59 1553.15, 9.46 1500.1 C15.33 1447.05, 24.04 1393.92, 35.2 1341.77 C46.37 1289.62, 60.36 1238.05, 76.45 1187.21 C92.54 1136.36, 110.62 1086, 131.75 1036.69 C152.88 987.38, 177.37 938.49, 203.24 891.33 C229.11 844.17, 256.64 798.17, 286.99 753.71 C317.33 709.26, 350.95 665.95, 385.3 624.59 C419.64 583.23, 454.93 543.7, 493.04 505.55 C531.15 467.4, 571.96 430.24, 613.96 395.71 C655.95 361.18, 699.88 328.7, 745 298.37 C790.11 268.03, 836.93 239.52, 884.63 213.7 C932.33 187.88, 981.1 164.8, 1031.18 143.44 C1081.26 122.08, 1133.08 102.3, 1185.13 85.55 C1237.17 68.79, 1278.91 56.02, 1343.46 42.9 C1408.01 29.78, 1522.91 7.91, 1572.44 6.83 C1621.96 5.75, 1637.93 8.45, 1640.6 36.41 M1513.1 14.17 C1561.04 -19.98, 1621.77 1.56, 1676.28 -0.24 C1730.79 -2.04, 1785.32 -0.18, 1840.18 3.38 C1895.05 6.94, 1951.23 12.62, 2005.47 21.13 C2059.72 29.65, 2112.71 41.05, 2165.66 54.48 C2218.61 67.92, 2271.54 83.41, 2323.15 101.76 C2374.76 120.11, 2426.09 141.65, 2475.3 164.59 C2524.52 187.54, 2571.84 211.86, 2618.45 239.42 C2665.06 266.99, 2710.99 298.26, 2754.96 329.96 C2798.93 361.66, 2841.44 394.11, 2882.27 429.63 C2923.09 465.16, 2962.36 503.76, 2999.92 543.12 C3037.49 582.47, 3074.24 623.1, 3107.64 665.76 C3141.04 708.43, 3171.91 753.51, 3200.32 799.1 C3228.73 844.7, 3254.09 891.88, 3278.11 939.32 C3302.13 986.76, 3324.94 1034.07, 3344.42 1083.73 C3363.9 1133.38, 3380.58 1185.89, 3394.99 1237.25 C3409.41 1288.62, 3421.13 1339.57, 3430.9 1391.91 C3440.68 1444.25, 3449.27 1497.77, 3453.62 1551.3 C3457.98 1604.82, 3458.23 1659.54, 3457.04 1713.06 C3455.85 1766.57, 3452.36 1819.31, 3446.49 1872.37 C3440.61 1925.44, 3433.16 1979.35, 3421.8 2031.45 C3410.44 2083.56, 3394.8 2134.29, 3378.31 2185 C3361.83 2235.71, 3344.13 2286.58, 3322.92 2335.7 C3301.71 2384.82, 3277.25 2432.97, 3251.06 2479.71 C3224.88 2526.44, 3196.01 2571.49, 3165.8 2616.11 C3135.6 2660.73, 3104.05 2705.94, 3069.82 2747.44 C3035.6 2788.94, 2999.31 2827.37, 2960.45 2865.12 C2921.59 2902.87, 2879.05 2939.54, 2836.67 2973.96 C2794.29 3008.38, 2750.9 3041.44, 2706.19 3071.64 C2661.48 3101.85, 2616.36 3129.72, 2568.41 3155.18 C2520.45 3180.64, 2468.82 3203.2, 2418.47 3224.41 C2368.11 3245.63, 2318.1 3265.83, 2266.27 3282.47 C2214.43 3299.1, 2160.93 3312.67, 2107.48 3324.24 C2054.03 3335.8, 2000.01 3344.87, 1945.57 3351.87 C1891.13 3358.86, 1835.52 3364.63, 1780.81 3366.21 C1726.11 3367.78, 1672.11 3365.19, 1617.32 3361.29 C1562.52 3357.39, 1506.46 3351.27, 1452.03 3342.82 C1397.61 3334.37, 1343.74 3324.06, 1290.78 3310.6 C1237.82 3297.13, 1185.71 3280.2, 1134.26 3262.03 C1082.8 3243.87, 1031.15 3224.22, 982.06 3201.59 C932.97 3178.96, 886.45 3154.02, 839.72 3126.26 C792.99 3098.49, 746.08 3066.83, 701.68 3034.99 C657.29 3003.15, 614.12 2970.67, 573.37 2935.21 C532.62 2899.75, 494.32 2861.32, 457.18 2822.24 C420.03 2783.17, 383.56 2743.26, 350.49 2700.78 C317.41 2658.3, 287.41 2612.68, 258.71 2567.34 C230.02 2522, 202.63 2476.37, 178.31 2428.74 C153.99 2381.1, 132.21 2331.74, 112.79 2281.53 C93.36 2231.32, 76.4 2179.23, 61.76 2127.47 C47.13 2075.71, 34.21 2023.28, 24.96 1970.97 C15.71 1918.65, 10.46 1866.34, 6.25 1813.57 C2.03 1760.81, -1.2 1707.72, -0.34 1654.38 C0.53 1601.04, 5.22 1546.65, 11.45 1493.52 C17.69 1440.39, 26.11 1387.66, 37.09 1335.61 C48.07 1283.56, 60.8 1232.1, 77.31 1181.2 C93.82 1130.31, 114.54 1079.53, 136.16 1030.25 C157.77 980.97, 181.09 932.72, 206.99 885.54 C232.89 838.37, 261.22 791.6, 291.56 747.19 C321.89 702.78, 354.27 660.22, 388.99 619.06 C423.72 577.9, 461.67 538.17, 499.89 500.24 C538.11 462.32, 576.48 425.59, 618.31 391.51 C660.14 357.43, 705.46 326.1, 750.85 295.76 C796.24 265.43, 842.55 235.25, 890.67 209.51 C938.78 183.77, 989.49 162.53, 1039.52 141.32 C1089.55 120.11, 1138.8 99.25, 1190.83 82.27 C1242.85 65.29, 1297.83 51.1, 1351.69 39.44 C1405.54 27.79, 1486.47 11.38, 1513.94 12.35 C1541.41 13.31, 1512.99 17.12, 1516.51 45.24" stroke="#1e1e1e" stroke-width="2" fill="none"></path></g><g stroke-linecap="round" transform="translate(19208.03726136625 17.666947788085963) rotate(0 1295.7141761864586 1809.3996779881932)"><path d="M974.63 56.35 C1008.19 13.37, 1057.74 30.79, 1099.5 21.85 C1141.27 12.91, 1182.93 6.1, 1225.21 2.71 C1267.48 -0.68, 1310.66 -1.22, 1353.15 1.51 C1395.63 4.25, 1438.14 10.53, 1480.13 19.13 C1522.12 27.73, 1564.14 38.97, 1605.07 53.09 C1646 67.21, 1686 84.5, 1725.69 103.85 C1765.38 123.2, 1804.66 144.41, 1843.23 169.16 C1881.8 193.9, 1920.7 222.09, 1957.11 252.32 C1993.53 282.56, 2027.73 315.4, 2061.69 350.56 C2095.66 385.73, 2129.36 423.65, 2160.91 463.32 C2192.46 502.99, 2222.29 544.93, 2251.01 588.57 C2279.73 632.21, 2307.65 678.07, 2333.23 725.16 C2358.81 772.25, 2382.68 820.65, 2404.5 871.13 C2426.32 921.6, 2445.8 974.67, 2464.14 1028.02 C2482.49 1081.37, 2499.93 1135.51, 2514.56 1191.23 C2529.19 1246.94, 2541.54 1304.96, 2551.93 1362.31 C2562.31 1419.66, 2570.66 1477.18, 2576.88 1535.32 C2583.1 1593.46, 2586.94 1652.06, 2589.22 1711.13 C2591.51 1770.21, 2592.27 1830.51, 2590.6 1889.79 C2588.93 1949.06, 2585.22 2008.17, 2579.19 2066.78 C2573.16 2125.39, 2564.68 2184.04, 2554.41 2241.45 C2544.14 2298.86, 2531.54 2355.46, 2517.57 2411.24 C2503.59 2467.01, 2488.4 2522.51, 2470.57 2576.09 C2452.75 2629.66, 2432.23 2681.9, 2410.62 2732.71 C2389 2783.53, 2366.11 2833.39, 2340.85 2880.97 C2315.6 2928.54, 2287.49 2974.42, 2259.08 3018.15 C2230.68 3061.87, 2201.6 3103.4, 2170.42 3143.33 C2139.24 3183.25, 2105.8 3222.1, 2072 3257.69 C2038.21 3293.27, 2003.89 3326.26, 1967.64 3356.83 C1931.39 3387.4, 1892.81 3415.59, 1854.5 3441.11 C1816.2 3466.63, 1777.31 3489.78, 1737.81 3509.95 C1698.31 3530.13, 1658.32 3547.45, 1617.5 3562.18 C1576.68 3576.9, 1534.92 3589.19, 1492.9 3598.31 C1450.89 3607.43, 1407.7 3613.81, 1365.41 3616.9 C1323.12 3619.99, 1281.45 3619.71, 1239.17 3616.85 C1196.9 3613.99, 1153.81 3608.19, 1111.76 3599.72 C1069.7 3591.25, 1027.99 3580.05, 986.84 3566.03 C945.69 3552.01, 904.71 3535.3, 864.85 3515.6 C824.99 3495.89, 785.93 3472.75, 747.68 3447.81 C709.44 3422.88, 671.86 3396.01, 635.36 3365.98 C598.86 3335.94, 562.92 3302.48, 528.7 3267.59 C494.47 3232.71, 461.49 3196.27, 429.99 3156.67 C398.49 3117.08, 368.18 3073.88, 339.71 3030.04 C311.23 2986.2, 284.57 2940.84, 259.13 2893.64 C233.69 2846.43, 209.17 2797.31, 187.07 2746.82 C164.97 2696.32, 144.81 2644.08, 126.53 2590.65 C108.25 2537.22, 91.63 2481.85, 77.38 2426.23 C63.14 2370.61, 51.42 2314.18, 41.07 2256.95 C30.72 2199.71, 21.69 2141.18, 15.27 2082.82 C8.85 2024.45, 4.92 1965.74, 2.58 1906.75 C0.23 1847.76, -0.64 1787.87, 1.21 1728.88 C3.05 1669.88, 7.62 1611.29, 13.66 1552.8 C19.7 1494.32, 27.43 1435.45, 37.43 1377.95 C47.44 1320.45, 59.6 1263.43, 73.69 1207.82 C87.77 1152.21, 104.09 1097.95, 121.94 1044.31 C139.79 990.67, 159.35 936.97, 180.78 885.99 C202.2 835.01, 225.32 786.01, 250.51 738.42 C275.7 690.84, 303.52 644.44, 331.91 600.45 C360.3 556.46, 389.66 514.43, 420.85 474.49 C452.05 434.55, 485.08 396.26, 519.06 360.83 C553.05 325.41, 588.72 292.62, 624.78 261.95 C660.85 231.28, 697.52 202.28, 735.47 176.81 C773.42 151.34, 804.79 131.94, 852.49 109.14 C900.2 86.35, 984.65 47.71, 1021.71 40.04 C1058.76 32.37, 1069.99 33.56, 1074.85 63.12 M1664.56 73.81 C1708.85 60.97, 1743.13 109.81, 1782.17 131.96 C1821.2 154.1, 1861.36 178.83, 1898.78 206.69 C1936.19 234.54, 1971.5 266.47, 2006.68 299.07 C2041.85 331.68, 2076.55 365.37, 2109.82 402.32 C2143.09 439.28, 2175.96 479.01, 2206.3 520.81 C2236.64 562.61, 2264.69 607.74, 2291.85 653.12 C2319.01 698.5, 2345.59 744.31, 2369.28 793.1 C2392.98 841.9, 2413.97 893.92, 2434 945.9 C2454.03 997.88, 2473.02 1050.76, 2489.46 1104.98 C2505.89 1159.21, 2520.29 1214.58, 2532.63 1271.24 C2544.97 1327.9, 2554.69 1386.68, 2563.51 1444.97 C2572.33 1503.25, 2580.95 1562.53, 2585.56 1620.95 C2590.17 1679.37, 2591.07 1736.74, 2591.17 1795.5 C2591.27 1854.26, 2589.83 1914.18, 2586.18 1973.51 C2582.53 2032.85, 2577.23 2093.48, 2569.29 2151.5 C2561.36 2209.52, 2550.97 2265.08, 2538.57 2321.63 C2526.17 2378.18, 2510.92 2435.8, 2494.91 2490.82 C2478.89 2545.83, 2462.09 2599.38, 2442.48 2651.72 C2422.86 2704.05, 2400.58 2755.53, 2377.21 2804.81 C2353.84 2854.1, 2328.54 2901.44, 2302.24 2947.44 C2275.94 2993.44, 2249.17 3038.88, 2219.41 3080.84 C2189.65 3122.79, 2156.64 3161.71, 2123.67 3199.19 C2090.71 3236.66, 2056.58 3272.46, 2021.6 3305.68 C1986.63 3338.9, 1951.01 3370.3, 1913.82 3398.52 C1876.64 3426.74, 1837.34 3451.67, 1798.49 3475.01 C1759.65 3498.34, 1720.8 3520.76, 1680.74 3538.54 C1640.68 3556.31, 1599.9 3570.07, 1558.14 3581.67 C1516.37 3593.27, 1472.41 3601.94, 1430.15 3608.15 C1387.9 3614.37, 1346.78 3618.6, 1304.6 3618.97 C1262.43 3619.33, 1219.12 3615.7, 1177.12 3610.34 C1135.12 3604.98, 1094.17 3597.83, 1052.6 3586.81 C1011.02 3575.79, 968.24 3561.05, 927.66 3544.21 C887.09 3527.36, 848.16 3507.95, 809.12 3485.75 C770.08 3463.54, 731.25 3438.63, 693.41 3411 C655.57 3383.37, 617.77 3352.28, 582.07 3319.95 C546.36 3287.62, 511.89 3254.16, 479.19 3217.01 C446.49 3179.86, 415.63 3138.65, 385.88 3097.05 C356.14 3055.45, 327.84 3012.76, 300.73 2967.4 C273.62 2922.04, 247.14 2874.14, 223.23 2824.89 C199.32 2775.63, 177.39 2723.64, 157.3 2671.86 C137.2 2620.08, 119.15 2568.29, 102.68 2514.2 C86.21 2460.1, 71.16 2403.81, 58.47 2347.31 C45.77 2290.81, 35.27 2233.17, 26.51 2175.19 C17.75 2117.2, 10.41 2058.08, 5.9 1999.4 C1.39 1940.72, -0.42 1882.49, -0.53 1823.1 C-0.65 1763.72, 1.32 1702.14, 5.19 1643.07 C9.07 1584.01, 14.62 1526.55, 22.72 1468.71 C30.82 1410.87, 41.95 1352.53, 53.8 1296.04 C65.64 1239.55, 77.73 1184.73, 93.77 1129.77 C109.81 1074.8, 130.24 1018.62, 150.03 966.24 C169.82 913.87, 189.66 864.51, 212.52 815.52 C235.37 766.54, 260.51 718.58, 287.15 672.36 C313.79 626.14, 342.63 580.39, 372.35 538.21 C402.06 496.03, 432.64 456.9, 465.47 419.29 C498.3 381.68, 533.96 345.98, 569.31 312.56 C604.67 279.14, 640.74 246.95, 677.59 218.76 C714.43 190.58, 751.37 166.07, 790.38 143.43 C829.39 120.79, 870.92 100.59, 911.64 82.93 C952.36 65.26, 993.19 49.75, 1034.69 37.44 C1076.18 25.13, 1118.59 15.34, 1160.63 9.06 C1202.67 2.77, 1244.73 0.18, 1286.91 -0.26 C1329.1 -0.71, 1371.79 0.7, 1413.74 6.38 C1455.69 12.06, 1497.11 22.4, 1538.6 33.83 C1580.1 45.25, 1643.29 62.47, 1662.73 74.93 C1682.16 87.39, 1661.12 79.63, 1655.2 108.58" stroke="#1e1e1e" stroke-width="2" fill="none"></path></g><g stroke-linecap="round"><g transform="translate(22182.81300314345 1466.7200797362573) rotate(0 1790.2323085179796 153.3389557617113)"><path d="M1.03 1.2 C597.66 52.4, 2984.44 255.95, 3580.95 306.7 M0.11 0.78 C596.52 52.23, 2983.76 257.29, 3580.26 308.25" stroke="#1e1e1e" stroke-width="2" fill="none"></path></g><g transform="translate(22182.81300314345 1466.7200797362573) rotate(0 1790.2323085179796 153.3389557617113)"><path d="M3556.12 314.77 C3567.77 312.77, 3575.44 308.71, 3580.26 308.25 M3556.12 314.77 C3562.32 313.76, 3567.08 312.66, 3580.26 308.25" stroke="#1e1e1e" stroke-width="2" fill="none"></path></g><g transform="translate(22182.81300314345 1466.7200797362573) rotate(0 1790.2323085179796 153.3389557617113)"><path d="M3557.58 297.73 C3568.57 302.54, 3575.67 305.28, 3580.26 308.25 M3557.58 297.73 C3563.53 300.49, 3567.97 303.16, 3580.26 308.25" stroke="#1e1e1e" stroke-width="2" fill="none"></path></g></g><mask></mask><g stroke-linecap="round" transform="translate(25855.280993636432 1175.376063789006) rotate(0 1751.8975695775516 1410.7183930077438)"><path d="M2440.13 113.58 C2501.47 109.25, 2544.57 151.81, 2594.81 174.08 C2645.04 196.34, 2694.37 221, 2741.54 247.15 C2788.7 273.31, 2833.91 301.44, 2877.82 331 C2921.72 360.57, 2964.87 391.69, 3004.98 424.55 C3045.1 457.41, 3082.62 492.19, 3118.52 528.16 C3154.43 564.13, 3189.26 601.64, 3220.41 640.36 C3251.56 679.08, 3279.24 719.64, 3305.41 760.47 C3331.58 801.31, 3356.04 842.77, 3377.44 885.39 C3398.84 928.01, 3417.79 971.94, 3433.84 1016.2 C3449.88 1060.46, 3463.31 1105.43, 3473.72 1150.95 C3484.13 1196.47, 3491.39 1243.25, 3496.29 1289.3 C3501.19 1335.35, 3503.76 1381.17, 3503.14 1427.25 C3502.52 1473.34, 3498.78 1520.07, 3492.58 1565.82 C3486.39 1611.57, 3477.74 1656.69, 3465.97 1701.76 C3454.2 1746.83, 3439.14 1792.28, 3421.97 1836.26 C3404.79 1880.24, 3385.39 1923.34, 3362.91 1965.63 C3340.43 2007.92, 3314.73 2049.6, 3287.09 2090.02 C3259.44 2130.43, 3229.24 2170.14, 3197.05 2208.1 C3164.85 2246.05, 3130.81 2282.64, 3093.91 2317.77 C3057.02 2352.9, 3016.75 2386.53, 2975.68 2418.88 C2934.62 2451.22, 2892.12 2482.92, 2847.53 2511.86 C2802.93 2540.8, 2756.05 2567.39, 2708.1 2592.52 C2660.15 2617.64, 2610.64 2641.26, 2559.83 2662.63 C2509.01 2683.99, 2456.33 2703.7, 2403.22 2720.71 C2350.11 2737.72, 2296.17 2752.04, 2241.18 2764.68 C2186.18 2777.32, 2129.45 2788.15, 2073.25 2796.56 C2017.05 2804.97, 1960.99 2811.12, 1903.98 2815.15 C1846.97 2819.18, 1788.47 2820.96, 1731.17 2820.74 C1673.88 2820.52, 1617.01 2818.65, 1560.2 2813.8 C1503.39 2808.95, 1446.19 2801.42, 1390.31 2791.65 C1334.42 2781.88, 1279.3 2769.19, 1224.88 2755.16 C1170.46 2741.12, 1116.66 2725.53, 1063.78 2707.42 C1010.9 2689.3, 957.9 2668.71, 907.61 2646.45 C857.32 2624.19, 809.29 2599.68, 762.03 2573.86 C714.77 2548.05, 668 2521.14, 624.05 2491.56 C580.1 2461.98, 538.09 2429.5, 498.33 2396.39 C458.56 2363.27, 421.13 2328.62, 385.47 2292.85 C349.8 2257.07, 315.51 2220.41, 284.32 2181.76 C253.12 2143.1, 224.73 2101.91, 198.29 2060.93 C171.84 2019.95, 147.05 1978.62, 125.63 1935.86 C104.21 1893.1, 85.78 1848.8, 69.78 1804.38 C53.77 1759.97, 40.27 1714.53, 29.6 1669.37 C18.93 1624.2, 10.52 1579.05, 5.75 1533.39 C0.98 1487.73, 0.2 1441.73, 0.97 1395.39 C1.74 1349.06, 4.24 1301.44, 10.37 1255.38 C16.51 1209.33, 25.85 1163.88, 37.8 1119.09 C49.75 1074.29, 64.82 1030.61, 82.09 986.63 C99.36 942.65, 119.16 897.69, 141.41 855.22 C163.67 812.76, 188.1 772.06, 215.6 731.82 C243.1 691.59, 274.04 651.84, 306.43 613.81 C338.83 575.79, 373.24 539.03, 409.99 503.68 C446.75 468.33, 485.8 433.88, 526.96 401.7 C568.11 369.51, 612.3 339.5, 656.93 310.58 C701.57 281.67, 747.11 253.59, 794.78 228.2 C842.45 202.8, 892.11 179.45, 942.94 158.21 C993.77 136.98, 1046.61 117.95, 1099.75 100.8 C1152.89 83.65, 1206.71 67.95, 1261.77 55.3 C1316.83 42.65, 1373.61 33.23, 1430.12 24.91 C1486.63 16.59, 1543.99 9.59, 1600.81 5.37 C1657.64 1.16, 1713.93 -0.89, 1771.06 -0.35 C1828.19 0.19, 1886.6 3.6, 1943.6 8.62 C2000.6 13.63, 2056.96 20.22, 2113.07 29.74 C2169.18 39.27, 2217.97 49.07, 2280.27 65.79 C2342.57 82.52, 2447.25 112.2, 2486.85 130.09 C2526.46 147.98, 2530.04 151.77, 2517.9 173.14 M1044.49 120.51 C1082.51 81.8, 1149.05 86.14, 1203.33 71.69 C1257.6 57.25, 1314.22 44.05, 1370.15 33.85 C1426.09 23.65, 1482.47 15.97, 1538.95 10.5 C1595.44 5.02, 1651.68 2.08, 1709.06 0.99 C1766.45 -0.1, 1825.81 0.66, 1883.25 3.97 C1940.7 7.27, 1997.41 13.12, 2053.74 20.83 C2110.08 28.54, 2166.21 37.94, 2221.28 50.21 C2276.34 62.48, 2330.65 77.64, 2384.14 94.44 C2437.64 111.24, 2491.41 130.25, 2542.24 151.03 C2593.07 171.81, 2641 194.29, 2689.13 219.12 C2737.27 243.94, 2785.74 271.75, 2831.05 299.97 C2876.36 328.2, 2919.38 356.54, 2961 388.46 C3002.62 420.39, 3043.6 456.49, 3080.75 491.51 C3117.9 526.53, 3151.04 561.31, 3183.91 598.6 C3216.78 635.88, 3249.4 675.09, 3277.97 715.23 C3306.53 755.36, 3332.42 797.25, 3355.3 839.4 C3378.18 881.55, 3397.45 924.04, 3415.27 968.11 C3433.08 1012.18, 3449.5 1058.51, 3462.2 1103.81 C3474.9 1149.11, 3484.75 1194.5, 3491.46 1239.9 C3498.18 1285.3, 3501.1 1330.11, 3502.49 1376.2 C3503.88 1422.29, 3503.71 1470.18, 3499.8 1516.44 C3495.9 1562.69, 3489.02 1608.29, 3479.06 1653.73 C3469.11 1699.18, 3455.78 1744.74, 3440.09 1789.08 C3424.39 1833.43, 3405.62 1876.98, 3384.89 1919.82 C3364.15 1962.66, 3341.51 2005.18, 3315.69 2046.12 C3289.87 2087.06, 3260.33 2126.63, 3229.96 2165.47 C3199.59 2204.31, 3168.41 2242.77, 3133.44 2279.15 C3098.48 2315.52, 3060 2350.16, 3020.17 2383.71 C2980.35 2417.27, 2937.84 2450.43, 2894.49 2480.48 C2851.15 2510.52, 2806.67 2537.81, 2760.09 2563.98 C2713.51 2590.14, 2664.74 2614.56, 2615 2637.46 C2565.26 2660.36, 2514.33 2682.48, 2461.63 2701.37 C2408.93 2720.27, 2353.28 2736.37, 2298.79 2750.81 C2244.3 2765.25, 2190.49 2778, 2134.69 2788 C2078.88 2798, 2020.96 2805.11, 1963.96 2810.79 C1906.96 2816.48, 1849.78 2820.84, 1792.69 2822.11 C1735.59 2823.38, 1678.16 2822.24, 1621.4 2818.44 C1564.63 2814.63, 1508.45 2807.24, 1452.1 2799.27 C1395.74 2791.3, 1338.64 2782.58, 1283.28 2770.6 C1227.91 2758.62, 1173.38 2744.32, 1119.93 2727.39 C1066.48 2710.45, 1013.52 2689.78, 962.57 2668.99 C911.63 2648.21, 862.59 2627.01, 814.25 2602.69 C765.92 2578.37, 717.82 2551.76, 672.56 2523.08 C627.29 2494.4, 584.2 2462.46, 542.66 2430.61 C501.12 2398.75, 460.45 2366.63, 423.31 2331.97 C386.18 2297.3, 352.54 2260.41, 319.87 2222.6 C287.21 2184.8, 255.75 2145.44, 227.32 2105.16 C198.89 2064.88, 172.66 2022.89, 149.28 1980.91 C125.91 1938.94, 104.67 1896.9, 87.07 1853.28 C69.46 1809.67, 56.05 1764.49, 43.67 1719.23 C31.29 1673.98, 19.92 1627.58, 12.8 1581.77 C5.67 1535.96, 2.34 1490.42, 0.92 1444.37 C-0.51 1398.32, 0.27 1351.54, 4.26 1305.46 C8.26 1259.37, 15.15 1213.22, 24.88 1167.84 C34.61 1122.47, 46.9 1077.42, 62.64 1033.2 C78.38 988.98, 98.49 945.28, 119.3 902.5 C140.11 859.71, 161.92 817.54, 187.51 776.47 C213.1 735.4, 242.29 695, 272.87 656.08 C303.44 617.16, 335.87 579.49, 370.94 542.95 C406.02 506.41, 443.54 470.32, 483.33 436.85 C523.12 403.38, 565.95 372.24, 609.68 342.13 C653.42 312.03, 698.96 282.9, 745.75 256.22 C792.54 229.53, 840.75 204.82, 890.42 182.02 C940.1 159.22, 1015.71 125.21, 1043.79 119.42 C1071.86 113.63, 1046.86 125.55, 1058.86 147.28" stroke="#1e1e1e" stroke-width="2" fill="none"></path></g><g stroke-linecap="round" transform="translate(29650.420148738787 1190.709959365177) rotate(0 1805.5662040941497 1207.5442766234764)"><path d="M997.01 127.27 C1034.49 92.38, 1106.21 93.59, 1162.13 79.33 C1218.05 65.08, 1274.72 52.16, 1332.52 41.73 C1390.33 31.3, 1449.84 23.31, 1508.97 16.75 C1568.11 10.18, 1627.63 5.05, 1687.34 2.35 C1747.05 -0.36, 1807.34 -1.03, 1867.24 0.49 C1927.15 2.01, 1987.45 6.18, 2046.77 11.45 C2106.09 16.73, 2165.04 22.98, 2223.17 32.13 C2281.31 41.28, 2338.83 53.18, 2395.59 66.35 C2452.35 79.53, 2509.23 94.37, 2563.74 111.19 C2618.24 128.02, 2671.04 146.96, 2722.62 167.3 C2774.2 187.63, 2824.79 209.47, 2873.22 233.19 C2921.66 256.9, 2968.82 282.83, 3013.25 309.59 C3057.67 336.35, 3099.65 364.05, 3139.77 393.75 C3179.9 423.44, 3218.3 455.57, 3253.98 487.75 C3289.66 519.93, 3323.04 552.5, 3353.86 586.83 C3384.67 621.15, 3413.07 657.36, 3438.87 693.71 C3464.68 730.06, 3488.53 767.03, 3508.7 804.93 C3528.87 842.84, 3545.92 882.06, 3559.91 921.14 C3573.89 960.23, 3584.4 1000.02, 3592.63 1039.45 C3600.86 1078.88, 3606.85 1117.81, 3609.3 1157.73 C3611.74 1197.65, 3610.9 1238.99, 3607.3 1278.97 C3603.69 1318.94, 3596.92 1358.11, 3587.67 1397.56 C3578.43 1437.01, 3567.07 1476.67, 3551.82 1515.66 C3536.56 1554.64, 3517.32 1593.81, 3496.15 1631.48 C3474.98 1669.14, 3451.11 1705.64, 3424.81 1741.64 C3398.5 1777.64, 3370.07 1813.53, 3338.32 1847.49 C3306.56 1881.44, 3270.99 1913.78, 3234.28 1945.38 C3197.57 1976.98, 3159.2 2007.98, 3118.06 2037.08 C3076.93 2066.19, 3032.91 2093.92, 2987.45 2120.01 C2942 2146.1, 2894.19 2170.34, 2845.35 2193.62 C2796.52 2216.9, 2746.36 2239.85, 2694.44 2259.68 C2642.53 2279.51, 2588.96 2296.59, 2533.87 2312.61 C2478.77 2328.63, 2421.1 2343.25, 2363.89 2355.8 C2306.67 2368.35, 2248.81 2379.35, 2190.58 2387.93 C2132.34 2396.52, 2074.02 2402.94, 2014.47 2407.29 C1954.92 2411.65, 1893.26 2413.51, 1833.25 2414.08 C1773.25 2414.65, 1713.97 2414.04, 1654.42 2410.73 C1594.87 2407.42, 1534.85 2401.61, 1475.94 2394.23 C1417.03 2386.84, 1358.53 2377.4, 1300.94 2366.41 C1243.34 2355.42, 1185.91 2343.3, 1130.36 2328.29 C1074.82 2313.28, 1020.81 2295.26, 967.65 2276.36 C914.49 2257.46, 861.67 2236.91, 811.41 2214.9 C761.14 2192.89, 712.53 2169.55, 666.05 2144.28 C619.57 2119.01, 575.05 2091.44, 532.53 2063.29 C490.02 2035.15, 448.83 2006.1, 410.96 1975.41 C373.09 1944.72, 338.46 1912.65, 305.31 1879.13 C272.16 1845.61, 240.46 1809.75, 212.07 1774.28 C183.67 1738.8, 157.7 1703.24, 134.94 1666.28 C112.19 1629.31, 92.69 1590.79, 75.53 1552.49 C58.36 1514.19, 43.27 1475.83, 31.96 1436.48 C20.65 1397.13, 12.99 1356.27, 7.64 1316.36 C2.3 1276.46, -0.6 1237.02, -0.1 1197.06 C0.4 1157.11, 4.12 1116.71, 10.66 1076.63 C17.21 1036.54, 26.84 995.98, 39.17 956.54 C51.5 917.11, 66.34 878.06, 84.65 840.01 C102.95 801.97, 125.19 764.79, 149 728.27 C172.81 691.75, 198.42 655.93, 227.5 620.89 C256.59 585.85, 289.24 551.05, 323.5 518.05 C357.76 485.05, 394.37 453.27, 433.09 422.89 C471.81 392.51, 512.44 363.49, 555.83 335.77 C599.22 308.05, 645.99 281.36, 693.43 256.58 C740.87 231.8, 786.62 209.71, 840.46 187.07 C894.29 164.43, 981.32 129.11, 1016.43 120.72 C1051.54 112.34, 1037.88 118.56, 1051.11 136.78 M982.3 132.93 C1019.13 97.94, 1088.44 99.57, 1144.33 84.73 C1200.22 69.89, 1259.87 54.8, 1317.65 43.9 C1375.42 33, 1432.41 25.88, 1491 19.31 C1549.59 12.75, 1609.43 7.78, 1669.19 4.52 C1728.96 1.26, 1789.69 -1.16, 1849.59 -0.25 C1909.49 0.66, 1968.84 4.78, 2028.59 9.97 C2088.34 15.16, 2149.36 22.22, 2208.1 30.9 C2266.84 39.57, 2324.58 49.23, 2381.04 62.03 C2437.49 74.83, 2492.18 90.86, 2546.82 107.7 C2601.46 124.54, 2656.65 143.15, 2708.85 163.08 C2761.04 183, 2811.28 204.22, 2859.97 227.23 C2908.67 250.25, 2956.14 274.73, 3001.01 301.17 C3045.88 327.6, 3088.58 356.5, 3129.2 385.83 C3169.81 415.17, 3208.72 444.96, 3244.7 477.2 C3280.68 509.44, 3313.89 544.78, 3345.06 579.27 C3376.24 613.76, 3405.66 648.34, 3431.73 684.13 C3457.8 719.92, 3480.78 756.32, 3501.48 794.01 C3522.19 831.7, 3541.19 871.19, 3555.95 910.27 C3570.71 949.35, 3581.46 988.79, 3590.06 1028.51 C3598.65 1068.22, 3604.31 1108.89, 3607.52 1148.56 C3610.73 1188.24, 3612.05 1226.66, 3609.32 1266.57 C3606.59 1306.47, 3600.05 1348.3, 3591.14 1387.99 C3582.24 1427.67, 3570.72 1466.02, 3555.88 1504.68 C3541.04 1543.33, 3522.5 1582.12, 3502.09 1619.91 C3481.69 1657.7, 3459.26 1694.99, 3433.45 1731.42 C3407.64 1767.84, 3378.85 1804.22, 3347.23 1838.45 C3315.61 1872.69, 3279.98 1905.07, 3243.75 1936.81 C3207.52 1968.55, 3170.26 1999.57, 3129.86 2028.89 C3089.45 2058.2, 3046.58 2086.02, 3001.34 2112.7 C2956.11 2139.38, 2907.12 2165.56, 2858.45 2188.95 C2809.78 2212.34, 2760.81 2233.18, 2709.3 2253.05 C2657.78 2272.91, 2604.25 2291.79, 2549.34 2308.15 C2494.43 2324.52, 2436.68 2338.24, 2379.84 2351.23 C2323 2364.21, 2266.45 2376.87, 2208.29 2386.04 C2150.13 2395.21, 2090.43 2401.52, 2030.88 2406.24 C1971.33 2410.96, 1911.03 2413.59, 1850.97 2414.37 C1790.91 2415.14, 1730.08 2413.57, 1670.5 2410.88 C1610.92 2408.19, 1552.33 2405.07, 1493.48 2398.22 C1434.63 2391.37, 1375.36 2380.83, 1317.4 2369.8 C1259.44 2358.78, 1201.57 2346.79, 1145.73 2332.08 C1089.88 2317.37, 1035.63 2300.09, 982.33 2281.54 C929.02 2262.99, 876.38 2242.61, 825.92 2220.76 C775.45 2198.91, 726.36 2175, 679.53 2150.44 C632.71 2125.87, 587.68 2101.18, 544.97 2073.36 C502.25 2045.54, 461.56 2014.4, 423.24 1983.52 C384.91 1952.63, 348.71 1921.24, 315.03 1888.04 C281.35 1854.83, 249.82 1819.64, 221.16 1784.27 C192.49 1748.89, 166.54 1712.43, 143.03 1675.78 C119.52 1639.14, 97.88 1602.33, 80.09 1564.39 C62.31 1526.45, 48.23 1487.48, 36.32 1448.16 C24.41 1408.84, 14.78 1368.5, 8.63 1328.46 C2.48 1288.43, -0.48 1247.93, -0.6 1207.96 C-0.72 1167.98, 1.67 1128.32, 7.9 1088.63 C14.12 1048.93, 24.66 1009.21, 36.76 969.8 C48.85 930.4, 63.12 890.68, 80.46 852.18 C97.8 813.68, 117.82 775.82, 140.8 738.83 C163.77 701.84, 189.65 665.32, 218.34 630.23 C247.02 595.13, 279.12 561.42, 312.91 528.27 C346.7 495.11, 382.3 461.99, 421.09 431.29 C459.87 400.6, 502.31 371.99, 545.64 344.1 C588.97 316.22, 634.33 289.04, 681.05 263.98 C727.77 238.92, 776.02 215.44, 825.95 193.72 C875.88 172, 952.14 140.33, 980.65 133.65 C1009.15 126.98, 983.01 135.86, 996.99 153.66" stroke="#1e1e1e" stroke-width="2" fill="none"></path></g><g stroke-linecap="round" transform="translate(33683.2346852718 1405.3844974315728) rotate(0 1495.0548186766864 1180.709959365177)"><path d="M782.37 143.65 C814.88 107.7, 876.86 105.62, 925.97 89.43 C975.07 73.25, 1025.99 58.41, 1077 46.54 C1128.01 34.66, 1180.13 25.57, 1232.02 18.2 C1283.91 10.82, 1335.61 5.32, 1388.33 2.28 C1441.04 -0.75, 1495.4 -1.71, 1548.3 0.01 C1601.2 1.73, 1653.43 6.6, 1705.74 12.59 C1758.05 18.58, 1810.6 25.81, 1862.18 35.95 C1913.77 46.09, 1965.45 58.67, 2015.25 73.41 C2065.05 88.14, 2113.5 105.76, 2160.98 124.35 C2208.46 142.94, 2255.55 162.54, 2300.15 184.96 C2344.76 207.38, 2387.37 232.71, 2428.62 258.86 C2469.87 285.01, 2510.04 312.57, 2547.64 341.86 C2585.24 371.16, 2620.92 402.04, 2654.21 434.62 C2687.51 467.21, 2718.33 502.04, 2747.4 537.36 C2776.47 572.68, 2804.52 609.51, 2828.64 646.55 C2852.76 683.6, 2873.38 720.78, 2892.1 759.64 C2910.83 798.5, 2927.36 838.95, 2940.98 879.71 C2954.6 920.47, 2965.85 962.89, 2973.83 1004.22 C2981.82 1045.55, 2986.8 1086, 2988.89 1127.7 C2990.97 1169.4, 2989.71 1212.52, 2986.36 1254.44 C2983.02 1296.35, 2977.63 1337.94, 2968.8 1379.19 C2959.96 1420.43, 2947.79 1461.7, 2933.34 1501.9 C2918.88 1542.1, 2901.57 1581.52, 2882.06 1620.38 C2862.55 1659.23, 2841.14 1698.17, 2816.28 1735.03 C2791.41 1771.89, 2762.82 1807.11, 2732.86 1841.54 C2702.9 1875.96, 2670.64 1909.58, 2636.51 1941.57 C2602.38 1973.56, 2566.35 2004.58, 2528.08 2033.49 C2489.81 2062.4, 2448.73 2089.28, 2406.88 2115.04 C2365.02 2140.8, 2321.86 2166.04, 2276.95 2188.06 C2232.04 2210.09, 2185.46 2229.44, 2137.41 2247.18 C2089.37 2264.92, 2038.78 2280.64, 1988.69 2294.49 C1938.6 2308.34, 1888.32 2320.75, 1836.86 2330.28 C1785.4 2339.82, 1732.38 2346.51, 1679.92 2351.71 C1627.46 2356.91, 1575.07 2360.67, 1522.11 2361.49 C1469.14 2362.3, 1414.9 2360.35, 1362.15 2356.59 C1309.39 2352.83, 1257.44 2347.02, 1205.59 2338.93 C1153.75 2330.84, 1101.9 2320.58, 1051.08 2308.06 C1000.26 2295.54, 949.49 2280.32, 900.65 2263.83 C851.8 2247.33, 803.97 2229.67, 758.01 2209.09 C712.04 2188.52, 667.66 2164.81, 624.85 2140.4 C582.05 2115.99, 540.72 2090.41, 501.15 2062.63 C461.58 2034.86, 423.11 2004.95, 387.43 1973.74 C351.76 1942.53, 318.21 1909.07, 287.09 1875.37 C255.96 1841.68, 227.15 1807.56, 200.66 1771.57 C174.18 1735.59, 149.72 1697.74, 128.18 1659.46 C106.64 1621.18, 87.74 1581.78, 71.41 1541.89 C55.08 1502, 40.97 1461.02, 30.19 1420.13 C19.41 1379.23, 11.78 1338.35, 6.73 1296.53 C1.69 1254.72, -0.56 1211.19, -0.07 1169.23 C0.41 1127.27, 3.45 1086.17, 9.64 1044.76 C15.82 1003.35, 25.49 961.46, 37.04 920.78 C48.59 880.1, 61.76 840.44, 78.92 800.71 C96.08 760.98, 117.61 720.39, 139.99 682.42 C162.37 644.45, 186.19 608.47, 213.2 572.89 C240.22 537.3, 270.11 502.43, 302.09 468.9 C334.06 435.37, 368.78 402.24, 405.05 371.7 C441.32 341.16, 479.35 312.77, 519.72 285.65 C560.09 258.52, 599.37 234.54, 647.25 208.94 C695.14 183.35, 774.28 142.81, 807.01 132.07 C839.75 121.33, 832.18 126.81, 843.66 144.52 M1756.25 18.44 C1810.06 6, 1861.01 35.35, 1911.84 46.82 C1962.67 58.28, 2011.93 71.41, 2061.23 87.21 C2110.54 103, 2160.77 121.63, 2207.66 141.59 C2254.55 161.55, 2299.23 183.09, 2342.56 206.99 C2385.9 230.89, 2427.42 257.8, 2467.67 284.99 C2507.92 312.19, 2547.47 340.08, 2584.04 370.18 C2620.61 400.29, 2654.98 432.11, 2687.09 465.65 C2719.19 499.2, 2749.67 535.38, 2776.67 571.46 C2803.67 607.53, 2826.85 644.18, 2849.1 682.12 C2871.35 720.05, 2892.98 759.57, 2910.19 799.09 C2927.39 838.61, 2940.77 878.37, 2952.3 919.25 C2963.84 960.14, 2973.11 1002.65, 2979.4 1044.39 C2985.69 1086.12, 2989.2 1128.21, 2990.05 1169.67 C2990.91 1211.13, 2989.57 1251.55, 2984.5 1293.14 C2979.44 1334.73, 2970.56 1377.88, 2959.67 1419.21 C2948.79 1460.54, 2935.4 1501.58, 2919.21 1541.13 C2903.02 1580.67, 2883.76 1618.21, 2862.51 1656.46 C2841.27 1694.71, 2818.19 1733.98, 2791.76 1770.61 C2765.32 1807.24, 2735.24 1842.71, 2703.91 1876.26 C2672.57 1909.8, 2639.42 1940.88, 2603.76 1971.87 C2568.1 2002.85, 2529.25 2034.04, 2489.96 2062.17 C2450.66 2090.3, 2410.78 2116.33, 2367.99 2140.63 C2325.2 2164.93, 2279.57 2187.47, 2233.23 2207.96 C2186.89 2228.44, 2138.77 2246.7, 2089.95 2263.54 C2041.13 2280.37, 1990.56 2296.3, 1940.31 2308.95 C1890.05 2321.59, 1840.24 2331.53, 1788.4 2339.42 C1736.56 2347.32, 1682.18 2352.62, 1629.25 2356.32 C1576.32 2360.02, 1523.86 2362.28, 1470.82 2361.62 C1417.79 2360.95, 1363.88 2357.6, 1311.04 2352.34 C1258.19 2347.09, 1205.46 2339.57, 1153.77 2330.08 C1102.08 2320.59, 1050.48 2309.03, 1000.89 2295.42 C951.3 2281.82, 903.93 2266.15, 856.23 2248.44 C808.52 2230.73, 760.01 2210.89, 714.63 2189.15 C669.26 2167.4, 626.05 2143.45, 583.96 2117.95 C541.87 2092.45, 500.6 2065.24, 462.09 2036.13 C423.59 2007.02, 386.88 1975.35, 352.94 1943.3 C319 1911.25, 287.84 1878.49, 258.47 1843.83 C229.1 1809.17, 201.66 1772.46, 176.73 1735.36 C151.79 1698.25, 128.78 1660.12, 108.84 1621.2 C88.89 1582.27, 71.4 1541.8, 57.05 1501.82 C42.7 1461.83, 31.51 1422.31, 22.74 1381.3 C13.97 1340.29, 7.92 1297.84, 4.44 1255.77 C0.96 1213.7, -0.22 1170.97, 1.87 1128.88 C3.95 1086.8, 9.12 1044.58, 16.96 1003.24 C24.79 961.9, 35.36 921.3, 48.88 880.87 C62.4 840.44, 79.35 799.5, 98.1 760.65 C116.85 721.81, 137.42 684.7, 161.37 647.82 C185.33 610.94, 212.9 574.58, 241.83 539.35 C270.77 504.13, 301.66 469.35, 334.98 436.48 C368.3 403.6, 404.16 371.8, 441.76 342.09 C479.36 312.38, 519.48 284.16, 560.59 258.24 C601.69 232.32, 643.88 209.15, 688.4 186.57 C732.91 163.99, 780.33 141.35, 827.69 122.77 C875.06 104.18, 923.06 89.24, 972.6 75.04 C1022.13 60.85, 1073.14 48.09, 1124.88 37.59 C1176.62 27.08, 1230.47 17.97, 1283.05 12.01 C1335.62 6.06, 1387.88 3.19, 1440.35 1.85 C1492.82 0.51, 1545.16 1.26, 1597.86 3.98 C1650.55 6.69, 1730.83 11.79, 1756.52 18.12 C1782.21 24.45, 1756.19 22.4, 1751.98 41.97" stroke="#1e1e1e" stroke-width="2" fill="none"></path></g><g stroke-linecap="round" transform="translate(37708.38227401672 1321.0480717626317) rotate(0 1525.7226098290266 1525.7226098290266)"><path d="M2185.38 149.4 C2239.84 147.69, 2276.41 197.05, 2319.69 223.35 C2362.97 249.65, 2404.9 276.8, 2445.06 307.21 C2485.22 337.62, 2523.52 371.3, 2560.65 405.83 C2597.77 440.37, 2634.17 476.53, 2667.8 514.44 C2701.43 552.35, 2732.84 592.3, 2762.41 633.3 C2791.98 674.3, 2819.59 716.6, 2845.21 760.44 C2870.82 804.28, 2895.22 850.31, 2916.11 896.34 C2936.99 942.37, 2954.59 988.89, 2970.52 1036.63 C2986.44 1084.38, 3000.26 1133.42, 3011.66 1182.8 C3023.05 1232.17, 3032.5 1282.65, 3038.89 1332.88 C3045.28 1383.11, 3048.56 1433.33, 3050.01 1484.17 C3051.47 1535.02, 3051.06 1587.29, 3047.61 1637.94 C3044.15 1688.59, 3038.22 1738.43, 3029.31 1788.09 C3020.4 1837.76, 3007.9 1887.14, 2994.17 1935.92 C2980.43 1984.7, 2965.22 2033.63, 2946.91 2080.77 C2928.6 2127.91, 2907.22 2173.64, 2884.31 2218.76 C2861.39 2263.88, 2836.81 2308.83, 2809.41 2351.49 C2782.01 2394.15, 2751.41 2435.12, 2719.92 2474.71 C2688.43 2514.31, 2655.63 2552.73, 2620.46 2589.07 C2585.29 2625.41, 2547.86 2660.23, 2508.88 2692.76 C2469.9 2725.29, 2428.6 2755.56, 2386.58 2784.27 C2344.56 2812.98, 2301.07 2840.72, 2256.78 2865.04 C2212.5 2889.36, 2167.22 2910.5, 2120.86 2930.19 C2074.5 2949.88, 2026.99 2968.13, 1978.61 2983.19 C1930.23 2998.26, 1880.29 3010.67, 1830.58 3020.57 C1780.87 3030.47, 1730.64 3037.36, 1680.34 3042.6 C1630.05 3047.84, 1579.45 3051.66, 1528.81 3052 C1478.17 3052.33, 1427 3049.59, 1376.52 3044.6 C1326.04 3039.62, 1275.73 3032.08, 1225.93 3022.08 C1176.14 3012.08, 1126.21 2999.36, 1077.75 2984.59 C1029.29 2969.82, 981.76 2953.25, 935.18 2933.48 C888.6 2913.71, 842.77 2890.25, 798.27 2865.98 C753.77 2841.71, 709.97 2816.17, 668.17 2787.87 C626.36 2759.56, 586.41 2728.5, 547.45 2696.16 C508.49 2663.81, 469.76 2630.09, 434.41 2593.78 C399.06 2557.46, 366.94 2517.82, 335.36 2478.26 C303.78 2438.69, 272.76 2398.61, 244.93 2356.39 C217.1 2314.17, 191.56 2270.12, 168.38 2224.92 C145.21 2179.73, 124.47 2132.38, 105.88 2085.22 C87.3 2038.05, 70.46 1990.52, 56.85 1941.94 C43.25 1893.36, 32.91 1843.75, 24.24 1793.74 C15.57 1743.72, 8.94 1692.34, 4.84 1641.87 C0.73 1591.41, -1.59 1541.34, -0.41 1490.96 C0.77 1440.57, 5.52 1389.9, 11.92 1339.57 C18.32 1289.24, 26.81 1238.61, 38.01 1188.97 C49.21 1139.33, 63.15 1089.82, 79.15 1041.73 C95.15 993.65, 113.37 946.68, 134.01 900.46 C154.66 854.24, 177.92 808.12, 203.03 764.42 C228.13 720.72, 255.19 679.22, 284.63 638.25 C314.06 597.28, 346.15 556.83, 379.63 518.59 C413.11 480.36, 448.33 443.31, 485.52 408.82 C522.72 374.33, 562.51 342.15, 602.8 311.67 C643.09 281.18, 684.34 252.35, 727.27 225.93 C770.21 199.5, 814.68 175.41, 860.41 153.13 C906.14 130.84, 953.93 109.7, 1001.65 92.22 C1049.37 74.73, 1097.68 60.76, 1146.74 48.22 C1195.8 35.67, 1246.01 24.7, 1296.03 16.94 C1346.05 9.19, 1396.23 4.19, 1446.85 1.66 C1497.48 -0.86, 1549.1 -0.87, 1599.8 1.78 C1650.5 4.42, 1701.24 10.05, 1751.07 17.53 C1800.91 25.01, 1849.76 34.4, 1898.82 46.67 C1947.88 58.93, 1988.46 69.35, 2045.44 91.14 C2102.42 112.94, 2202.03 153.57, 2240.71 177.44 C2279.39 201.32, 2289.45 211.95, 2277.53 234.41 M2046.01 92.61 C2100.08 85.53, 2142.51 129.63, 2188.39 151.49 C2234.27 173.35, 2278.34 197.54, 2321.29 223.77 C2364.24 250, 2405.97 278.14, 2446.12 308.87 C2486.27 339.61, 2524.75 373.58, 2562.18 408.17 C2599.62 442.77, 2637.1 478.75, 2670.73 516.43 C2704.36 554.11, 2734.57 593.23, 2763.97 634.27 C2793.38 675.31, 2821.89 718.81, 2847.15 762.68 C2872.42 806.55, 2894.99 851.46, 2915.56 897.48 C2936.14 943.51, 2954.56 990.8, 2970.6 1038.82 C2986.64 1086.84, 3000.09 1136.08, 3011.79 1185.63 C3023.5 1235.18, 3034.36 1285.68, 3040.84 1336.12 C3047.32 1386.56, 3049.57 1437.57, 3050.66 1488.27 C3051.76 1538.98, 3051.27 1589.83, 3047.41 1640.33 C3043.55 1690.82, 3036.46 1741.6, 3027.51 1791.24 C3018.55 1840.88, 3007.1 1889.55, 2993.69 1938.19 C2980.28 1986.82, 2965.16 2035.93, 2947.03 2083.04 C2928.91 2130.15, 2908.09 2175.97, 2884.96 2220.86 C2861.84 2265.75, 2835.92 2309.94, 2808.3 2352.37 C2780.69 2394.8, 2750.74 2435.58, 2719.29 2475.44 C2687.84 2515.31, 2654.75 2555.09, 2619.6 2591.57 C2584.44 2628.06, 2547.26 2662.13, 2508.36 2694.38 C2469.46 2726.62, 2428.21 2756.8, 2386.19 2785.05 C2344.16 2813.3, 2300.73 2839.6, 2256.21 2863.87 C2211.69 2888.13, 2165.61 2910.92, 2119.06 2930.65 C2072.51 2950.37, 2025.34 2967.01, 1976.92 2982.23 C1928.5 2997.45, 1878.15 3011.47, 1828.53 3021.95 C1778.9 3032.44, 1729.48 3040.21, 1679.19 3045.14 C1628.91 3050.07, 1577.53 3051.93, 1526.82 3051.55 C1476.11 3051.16, 1425.29 3048.09, 1374.93 3042.85 C1324.57 3037.61, 1274.51 3029.87, 1224.65 3020.1 C1174.78 3010.34, 1124.25 2999.17, 1075.75 2984.24 C1027.26 2969.3, 980.38 2950.04, 933.68 2930.48 C886.97 2910.92, 840.13 2890.66, 795.53 2866.86 C750.93 2843.05, 707.54 2816.32, 666.11 2787.64 C624.67 2758.97, 585.57 2727.33, 546.91 2694.82 C508.25 2662.3, 470.01 2628.57, 434.17 2592.54 C398.34 2556.5, 363.61 2518.37, 331.88 2478.59 C300.14 2438.81, 271.01 2396.49, 243.76 2353.86 C216.51 2311.22, 191.32 2267.61, 168.36 2222.76 C145.4 2177.91, 124.59 2131.75, 106.01 2084.73 C87.43 2037.72, 70.89 1989.73, 56.89 1940.67 C42.9 1891.61, 30.79 1840.65, 22.04 1790.38 C13.28 1740.1, 7.92 1689.32, 4.37 1639.03 C0.81 1588.74, -0.54 1539.22, 0.71 1488.63 C1.96 1438.03, 5.71 1385.97, 11.84 1335.46 C17.98 1284.94, 26.07 1234.76, 37.51 1185.52 C48.95 1136.28, 64.14 1087.81, 80.47 1040.02 C96.81 992.23, 114.68 944.83, 135.52 898.79 C156.36 852.74, 180.2 807.49, 205.52 763.75 C230.84 720.02, 257.96 677.82, 287.45 636.4 C316.94 594.97, 349.05 553.25, 382.44 515.2 C415.84 477.15, 450.87 442.48, 487.82 408.1 C524.76 373.73, 563.73 339.48, 604.12 308.96 C644.51 278.45, 686.84 251.45, 730.17 225.01 C773.51 198.58, 818.4 172.29, 864.11 150.33 C909.82 128.37, 957.11 110.49, 1004.42 93.26 C1051.74 76.02, 1099.21 59.69, 1148.01 46.93 C1196.8 34.16, 1247.06 24.07, 1297.2 16.67 C1347.34 9.27, 1398.16 4.85, 1448.85 2.51 C1499.53 0.17, 1550.69 0.24, 1601.31 2.61 C1651.93 4.98, 1702.58 9.39, 1752.55 16.76 C1802.53 24.12, 1852.02 34.41, 1901.17 46.82 C1950.31 59.23, 2024.66 78.84, 2047.42 91.22 C2070.17 103.59, 2046.32 97.1, 2037.69 121.06" stroke="#1e1e1e" stroke-width="2" fill="none"></path></g></svg>